<?xml version="1.0" encoding="UTF-8" standalone="no"?>
<svg
   xmlns:dc="http://purl.org/dc/elements/1.1/"
   xmlns:cc="http://creativecommons.org/ns#"
   xmlns:rdf="http://www.w3.org/1999/02/22-rdf-syntax-ns#"
   xmlns:svg="http://www.w3.org/2000/svg"
   xmlns="http://www.w3.org/2000/svg"
   xmlns:sodipodi="http://sodipodi.sourceforge.net/DTD/sodipodi-0.dtd"
   xmlns:inkscape="http://www.inkscape.org/namespaces/inkscape"
   width="272.70825mm"
   height="32.266693mm"
   viewBox="0 0 272.70825 32.266693"
   version="1.1"
   id="svg8"
   sodipodi:docname="footer.svg"
   inkscape:version="1.0.1 (3bc2e813f5, 2020-09-07)">
  <defs
     id="defs2" />
  <sodipodi:namedview
     id="base"
     pagecolor="#ffffff"
     bordercolor="#666666"
     borderopacity="1.0"
     inkscape:pageopacity="0.0"
     inkscape:pageshadow="2"
     inkscape:zoom="0.98994949"
     inkscape:cx="566.71002"
     inkscape:cy="-20.474551"
     inkscape:document-units="mm"
     inkscape:current-layer="layer2"
     inkscape:document-rotation="0"
     showgrid="false"
     inkscape:window-width="1360"
     inkscape:window-height="731"
     inkscape:window-x="0"
     inkscape:window-y="0"
     inkscape:window-maximized="1" />
  <metadata
     id="metadata5">
    <rdf:RDF>
      <cc:Work
         rdf:about="">
        <dc:format>image/svg+xml</dc:format>
        <dc:type
           rdf:resource="http://purl.org/dc/dcmitype/StillImage" />
        <dc:title></dc:title>
      </cc:Work>
    </rdf:RDF>
  </metadata>
  <g
     inkscape:groupmode="layer"
     id="layer2"
     inkscape:label="Layer 2">
    <rect
       style="fill:#808080;stroke-width:0.192179"
       id="rect12-8"
       width="72.776237"
       height="0.34331954"
       x="206.14207"
       y="144.26003"
       transform="translate(-6.7677287,-141.13266)" />
    <rect
       style="fill:#808080;stroke-width:0.185647"
       id="rect12-6-3"
       width="67.913269"
       height="0.34331954"
       x="207.70464"
       y="151.16904"
       transform="translate(-6.7677287,-141.13266)" />
    <rect
       style="fill:#808080;stroke-width:0.192193"
       id="rect12-3-7-1"
       width="72.787468"
       height="0.34331954"
       x="203.90544"
       y="158.0146"
       transform="translate(-6.7677287,-141.13266)" />
    <rect
       style="fill:#808080;stroke-width:0.112351"
       id="rect12-5-3-92"
       width="24.873228"
       height="0.34331885"
       x="-167.24977"
       y="226.06851"
       transform="matrix(0.01126662,-0.99993654,0.99999993,3.6629181e-4,-6.7677287,-141.13266)" />
    <rect
       style="fill:#808080;stroke-width:0.112351"
       id="rect12-5-5-0"
       width="24.873228"
       height="0.34331885"
       x="-167.24788"
       y="231.70346"
       transform="matrix(0.01126662,-0.99993654,0.99999993,3.6629181e-4,-6.7677287,-141.13266)" />
    <rect
       style="fill:#808080;stroke-width:0.112351"
       id="rect12-5-3-6-6"
       width="24.873228"
       height="0.34331885"
       x="-167.76585"
       y="237.37338"
       transform="matrix(0.01126662,-0.99993654,0.99999993,3.6629181e-4,-6.7677287,-141.13266)" />
    <rect
       style="fill:#808080;stroke-width:0.112351"
       id="rect12-5-2-8"
       width="24.873228"
       height="0.34331885"
       x="-167.06523"
       y="242.88382"
       transform="matrix(0.01126662,-0.99993654,0.99999993,3.6629181e-4,-6.7677287,-141.13266)" />
    <rect
       style="fill:#808080;stroke-width:0.112351"
       id="rect12-5-3-9-9"
       width="24.873228"
       height="0.34331885"
       x="-167.58322"
       y="248.55373"
       transform="matrix(0.01126662,-0.99993654,0.99999993,3.6629181e-4,-6.7677287,-141.13266)" />
    <rect
       style="fill:#808080;stroke-width:0.112351"
       id="rect12-5-1-2"
       width="24.873228"
       height="0.34331885"
       x="-167.42018"
       y="254.21762"
       transform="matrix(0.01126662,-0.99993654,0.99999993,3.6629181e-4,-6.7677287,-141.13266)" />
    <rect
       style="fill:#808080;stroke-width:0.112351"
       id="rect12-5-3-2-6"
       width="24.873228"
       height="0.34331885"
       x="-167.93816"
       y="259.88751"
       transform="matrix(0.01126662,-0.99993654,0.99999993,3.6629181e-4,-6.7677287,-141.13266)" />
    <rect
       style="fill:#808080;stroke-width:0.192947"
       id="rect12-3-7-3-4"
       width="73.359505"
       height="0.34331954"
       x="201.05791"
       y="164.19702"
       transform="translate(-6.7677287,-141.13266)" />
    <rect
       style="fill:#808080;stroke-width:0.193553"
       id="rect12-3-4"
       width="73.821053"
       height="0.34331954"
       x="202.2234"
       y="151.16937"
       transform="translate(-6.7677287,-141.13266)" />
  </g>
  <g
     inkscape:label="Layer 1"
     inkscape:groupmode="layer"
     id="layer1"
     transform="translate(-6.7677286,-141.13266)">
    <rect
       style="fill:#808080;stroke-width:0.192179"
       id="rect12"
       width="72.776237"
       height="0.34331954"
       x="13.355706"
       y="145.03384" />
    <rect
       style="fill:#808080;stroke-width:0.193553"
       id="rect12-3"
       width="73.821053"
       height="0.34331954"
       x="9.4370279"
       y="151.94319" />
    <rect
       style="fill:#808080;stroke-width:0.185647"
       id="rect12-6"
       width="67.913269"
       height="0.34331954"
       x="14.918263"
       y="151.94286" />
    <rect
       style="fill:#808080;stroke-width:0.192193"
       id="rect12-3-7"
       width="72.787468"
       height="0.34331954"
       x="11.119069"
       y="158.78842" />
    <rect
       style="fill:#808080;stroke-width:0.112351"
       id="rect12-5"
       width="24.873228"
       height="0.34331885"
       x="-167.57629"
       y="27.621744"
       transform="matrix(0.01126662,-0.99993653,0.99999993,3.662913e-4,0,0)" />
    <rect
       style="fill:#808080;stroke-width:0.112351"
       id="rect12-5-3"
       width="24.873228"
       height="0.34331885"
       x="-168.09425"
       y="33.291641"
       transform="matrix(0.01126662,-0.99993653,0.99999993,3.6629181e-4,0,0)" />
    <rect
       style="fill:#808080;stroke-width:0.112351"
       id="rect12-5-5"
       width="24.873228"
       height="0.34331885"
       x="-168.09236"
       y="38.926594"
       transform="matrix(0.01126662,-0.99993653,0.99999993,3.6629181e-4,0,0)" />
    <rect
       style="fill:#808080;stroke-width:0.112351"
       id="rect12-5-3-6"
       width="24.873228"
       height="0.34331885"
       x="-168.61034"
       y="44.596504"
       transform="matrix(0.01126662,-0.99993653,0.99999993,3.6629181e-4,0,0)" />
    <rect
       style="fill:#808080;stroke-width:0.112351"
       id="rect12-5-2"
       width="24.873228"
       height="0.34331885"
       x="-167.90971"
       y="50.106949"
       transform="matrix(0.01126662,-0.99993653,0.99999993,3.6629181e-4,0,0)" />
    <rect
       style="fill:#808080;stroke-width:0.112351"
       id="rect12-5-3-9"
       width="24.873228"
       height="0.34331885"
       x="-168.4277"
       y="55.776848"
       transform="matrix(0.01126662,-0.99993653,0.99999993,3.6629181e-4,0,0)" />
    <rect
       style="fill:#808080;stroke-width:0.112351"
       id="rect12-5-1"
       width="24.873228"
       height="0.34331885"
       x="-168.26466"
       y="61.44075"
       transform="matrix(0.01126662,-0.99993653,0.99999993,3.6629181e-4,0,0)" />
    <rect
       style="fill:#808080;stroke-width:0.112351"
       id="rect12-5-3-2"
       width="24.873228"
       height="0.34331885"
       x="-168.78264"
       y="67.110649"
       transform="matrix(0.01126662,-0.99993653,0.99999993,3.6629181e-4,0,0)" />
    <rect
       style="fill:#808080;stroke-width:0.112351"
       id="rect12-5-7"
       width="24.873228"
       height="0.34331885"
       x="-167.73152"
       y="72.547302"
       transform="matrix(0.01126662,-0.99993653,0.99999993,3.6629181e-4,0,0)" />
    <rect
       style="fill:#808080;stroke-width:0.112351"
       id="rect12-5-3-0"
       width="24.873228"
       height="0.34331885"
       x="-168.24948"
       y="78.217224"
       transform="matrix(0.01126662,-0.99993653,0.99999993,3.6629181e-4,0,0)" />
    <rect
       style="fill:#808080;stroke-width:0.112351"
       id="rect12-5-9"
       width="24.873228"
       height="0.34331885"
       x="-167.75906"
       y="16.682737"
       transform="matrix(0.01126662,-0.99993653,0.99999993,3.6629181e-4,0,0)" />
    <rect
       style="fill:#808080;stroke-width:0.112351"
       id="rect12-5-3-3"
       width="24.873228"
       height="0.34331885"
       x="-168.27704"
       y="22.352636"
       transform="matrix(0.01126662,-0.99993653,0.99999993,3.6629181e-4,0,0)" />
    <rect
       style="fill:#808080;stroke-width:0.112351"
       id="rect12-5-6"
       width="24.873228"
       height="0.34331885"
       x="-166.75786"
       y="84.220284"
       transform="matrix(0.01126662,-0.99993653,0.99999993,3.6629181e-4,0,0)" />
    <rect
       style="fill:#808080;stroke-width:0.192947"
       id="rect12-3-7-3"
       width="73.359505"
       height="0.34331954"
       x="8.2715425"
       y="164.97084" />
    <path
       style="fill:#ff0000;stroke-width:0.264583"
       id="path1038"
       d="m 20.320779,156.62724 c 0.853369,1.43699 1.243111,3.08107 1.581563,4.70074 0.203325,1.27936 0.412488,2.56019 0.546307,3.84928 0.06542,0.67702 0.07908,1.3574 0.08408,2.03708 -0.03648,0.51139 0.02405,0.92486 0.408691,1.27674 0.406797,0.24499 0.883367,0.3507 1.332892,0.49543 1.237834,0.46186 2.581396,0.39946 3.881728,0.43418 1.884384,0.0362 3.768905,0.0644 5.653397,0.0942 0.966814,0.032 1.933186,0.007 2.899852,-0.0133 2.006457,-0.0331 4.013237,-0.0212 6.019744,-0.001 1.219454,0.0296 2.439014,0.0102 3.658563,0.003 0.831803,-0.0551 1.689862,0.10498 2.515383,-0.0579 0.509019,-0.10042 0.691944,-0.21162 1.160839,-0.41825 1.668751,-1.046 3.791836,-1.89573 5.234479,-3.38531 0.115086,-0.11883 1.009846,-1.1542 1.088597,-1.24499 0.943213,-1.01794 1.77365,-2.12742 2.549882,-3.27575 0.575564,-0.96931 1.123757,-1.95482 1.69968,-2.92389 0.688089,-1.14812 1.501304,-2.21648 2.303428,-3.2864 0.617075,-0.82123 1.345245,-1.602 1.639092,-2.60548 0.127777,-0.58277 -0.124333,-0.97811 -0.66238,-1.17951 -0.475398,-0.10874 -0.968049,-0.0893 -1.45257,-0.0876 -0.631224,-0.008 -1.258999,0.02 -1.886683,0.0858 -1.44409,0.12548 -2.874655,0.36342 -4.312737,0.54083 -1.451536,0.16542 -2.890668,0.40877 -4.344313,0.55999 -1.064503,0.13611 -2.143691,0.0925 -3.2053,0.24493 -2.251168,0.45707 -4.045307,1.89484 -5.385768,3.62574 -0.331912,0.40871 -0.635043,0.88298 -1.063617,1.20386 -0.121264,0.0908 -0.524598,0.30322 -0.394536,0.22556 3.007153,-1.79582 3.994224,-2.17989 2.518746,-1.57086 -0.770962,0.32595 -1.604849,0.31005 -2.424962,0.29373 -0.614175,-0.003 -1.191176,-0.20795 -1.777278,-0.36178 -0.584478,-0.10456 -1.160349,-0.23816 -1.733124,-0.39493 -0.8847,-0.3011 -1.803884,-0.42703 -2.72973,-0.5139 -0.895361,-0.0839 -1.795523,-0.0601 -2.693487,-0.0609 -0.780066,-0.0167 -1.554184,-0.12036 -2.33207,-0.17165 -0.64708,-0.0354 -1.295421,-0.0418 -1.943314,-0.0498 -0.757256,-0.0309 -1.508474,0.0367 -2.257486,0.14147 -0.681778,0.11124 -1.360895,0.25897 -2.054082,0.26632 -0.0759,-0.009 -0.151799,-0.0183 -0.2277,-0.0275 0,0 -3.241863,2.27458 -3.241863,2.27458 v 0 c 0.08207,0.0171 0.164147,0.0343 0.246224,0.0515 0.717931,0.1242 1.444702,-0.11381 2.152176,-0.21946 0.723244,-0.12526 1.449282,-0.19671 2.183956,-0.165 0.646665,-0.002 1.293542,-0.002 1.939753,0.0262 0.794165,0.0403 1.585089,0.12257 2.379093,0.16556 0.887037,2.6e-4 1.774619,0.006 2.660854,0.0465 0.906635,0.0595 1.812081,0.15298 2.677459,0.44891 0.563941,0.18484 1.128395,0.3691 1.721382,0.42934 0.617386,0.13542 1.20692,0.37975 1.843818,0.41824 0.842512,0.0207 1.718251,0.0895 2.528853,-0.17957 2.516502,-0.91249 4.150767,-1.84089 5.598591,-3.80177 0.321177,-0.37761 0.405289,-0.49915 0.760857,-0.8321 0.109381,-0.10242 0.223104,-0.20056 0.342005,-0.29176 0.102622,-0.0787 0.435047,-0.27916 0.321522,-0.2172 -3.388995,1.84986 -4.165198,2.09537 -2.749605,1.60827 1.06408,-0.25211 2.166921,-0.15858 3.246524,-0.31585 1.44833,-0.15447 2.889446,-0.35398 4.333381,-0.54107 1.421354,-0.1885 2.838127,-0.43638 4.270374,-0.52323 0.610683,-0.0568 1.215787,-0.10797 1.830287,-0.0881 0.461794,-0.007 0.924415,-0.0178 1.385742,0.01 0.451724,0.045 0.484325,0.13081 0.36584,0.59795 -0.368433,0.92059 -1.046687,1.66778 -1.62043,2.46414 -0.804416,1.08777 -1.633001,2.16223 -2.311855,3.33552 -0.568047,0.97136 -1.118484,1.95343 -1.719916,2.90479 -0.769634,1.11865 -1.57429,2.21056 -2.504763,3.20333 -0.433605,0.47997 -0.690041,0.78527 -1.156952,1.22244 -1.055944,0.9887 -4.037279,2.69587 1.400927,-0.50318 -0.346663,0.18496 -0.69809,0.3954 -1.078844,0.50811 -0.810429,0.2399 -1.686872,0.0651 -2.513944,0.12453 -1.222211,-0.007 -2.444411,-0.0266 -3.666535,0.003 -2.006793,0.02 -4.013858,0.0332 -6.020615,0.001 -0.956902,-0.0201 -1.913217,-0.0392 -2.87021,-0.007 -1.908641,0.0232 -3.817953,0.0311 -5.726118,-0.0267 -1.229008,-0.0486 -2.514766,-0.006 -3.683465,-0.44384 -0.413433,-0.12875 -0.816904,-0.28684 -1.23674,-0.39128 -0.338359,-0.18925 -0.243281,-0.61897 -0.257558,-0.95242 -0.0094,-0.68813 -0.04017,-1.37547 -0.135433,-2.05801 -0.171214,-1.28602 -0.398446,-2.56524 -0.645482,-3.83849 -0.37556,-1.67104 -0.796489,-3.33947 -1.524834,-4.89761 0,0 -3.420261,2.00217 -3.420261,2.00217 z" />
    <path
       style="fill:#ff0000;stroke-width:0.264583"
       id="path1040"
       d="m 24.754445,146.72024 c 0.512535,1.05399 0.927028,2.14895 1.357849,3.23754 0.451017,1.25024 0.729089,2.54899 0.971071,3.85276 0.117552,0.76065 0.06596,0.39089 0.156676,1.10902 0,0 3.451225,-1.82032 3.451225,-1.82032 v 0 c -0.113739,-0.72026 -0.05188,-0.34907 -0.186854,-1.11335 -0.256625,-1.32564 -0.553069,-2.64286 -1.004967,-3.91806 -0.430167,-1.08552 -0.876443,-2.16634 -1.27028,-3.26493 0,0 -3.47472,1.91734 -3.47472,1.91734 z" />
    <path
       style="fill:#ff0000;stroke-width:0.264583"
       id="path1042"
       d="m 26.515948,147.52941 c 2.057212,-0.62245 4.094091,-1.32158 6.169231,-1.8824 1.242534,-0.32526 2.492526,-0.25947 3.739608,-0.0268 0.298098,0.11815 1.052856,0.15306 1.193077,0.54695 0.0463,0.13005 -0.04512,0.73381 -0.04801,0.75932 -0.208084,1.34245 -0.563057,2.65174 -0.969926,3.9453 -0.224938,0.88907 -0.511336,1.76099 -0.738523,2.64925 -0.132641,0.77287 -0.226907,1.55078 -0.343826,2.32672 0,0 3.529089,-1.73367 3.529089,-1.73367 v 0 c 0.109768,-0.76391 0.196675,-1.53309 0.358923,-2.28771 0.227767,-0.87696 0.492144,-1.74412 0.716815,-2.62203 0.376769,-1.32284 0.699595,-2.66119 0.937926,-4.01642 0.02888,-0.39431 0.104503,-0.68518 -0.05717,-1.06014 -0.214339,-0.4971 -0.942888,-0.59984 -1.379956,-0.7411 -1.300535,-0.24996 -2.60368,-0.3935 -3.910139,-0.0628 -2.042925,0.54057 -4.025194,1.29325 -6.080456,1.79545 0,0 -3.116667,2.41007 -3.116667,2.41007 z" />
    <path
       style="fill:#ff0000;stroke-width:0.264583"
       id="path1044"
       d="m 37.124599,151.32046 c 1.200264,-0.16222 2.369648,-0.48945 3.536828,-0.80374 1.265918,-0.39096 2.540352,-0.74339 3.837374,-1.01412 0.175903,-0.0394 0.351803,-0.0788 0.527704,-0.11813 0,0 3.099551,-2.36507 3.099551,-2.36507 v 0 c -0.1758,0.0447 -0.3516,0.0894 -0.527399,0.13418 -1.316972,0.26313 -2.61334,0.59548 -3.887946,1.02232 -1.123741,0.3047 -2.255354,0.62988 -3.413255,0.76946 0,0 -3.172857,2.3751 -3.172857,2.3751 z" />
    <path
       style="fill:#ff0000;stroke-width:0.264583"
       id="path1048"
       d="m 38.036435,147.22426 c 0.821569,-0.3119 1.697768,-0.4146 2.557095,-0.56993 1.086077,-0.2147 2.149097,-0.53386 3.2092,-0.85031 0.601459,-0.20992 1.224206,-0.33515 1.856118,-0.40335 0.242012,-0.0207 0.484529,-0.0316 0.726795,-0.049 0,0 3.168494,-2.37499 3.168494,-2.37499 v 0 c -0.23916,0.057 -0.468972,0.0696 -0.71541,0.0692 -0.654629,0.0492 -1.305674,0.14475 -1.931826,0.34971 -1.049666,0.37154 -2.135611,0.66224 -3.216487,0.92426 -0.843248,0.14768 -1.700577,0.21445 -2.521635,0.46713 0,0 -3.132344,2.43725 -3.132344,2.43725 z" />
    <path
       style="fill:#0000ff;stroke-width:0.264583"
       id="path1088"
       d="m 225.79482,152.56539 c 0.69,1.21796 1.26867,2.49498 1.89648,3.74535 0.75431,1.54018 1.67747,2.99102 2.67269,4.38504 1.24307,1.77252 2.86845,3.17991 4.57609,4.48457 1.29452,1.02402 2.66138,1.9214 4.20041,2.52315 1.48957,0.56661 3.03411,0.84475 4.61379,0.98549 1.74931,0.14561 3.50574,0.14486 5.25966,0.14215 1.53666,-0.0299 3.06984,0.0612 4.60205,0.16349 0.90388,0.0627 1.80909,0.11173 2.71516,0.12309 1.85089,0.081 4.44046,-0.42993 5.06443,-2.46541 0.15465,-0.92803 0.16033,-1.87428 0.16614,-2.81294 -0.0311,-1.15995 0.0116,-2.32233 -0.0628,-3.48036 -0.14728,-1.03123 -0.32527,-2.05643 -0.41733,-3.09464 -0.0572,-0.71681 -0.0633,-1.4361 -0.0612,-2.15474 -0.0178,-0.85746 -0.0164,-1.71497 -0.007,-2.57251 0.0511,-0.65977 -0.0687,-1.30907 -0.1428,-1.9618 -0.0579,-0.98699 -0.26795,-1.31523 -1.14887,-1.78675 -0.84391,-0.37315 -1.75269,-0.51017 -2.66405,-0.58645 -0.68704,-0.0813 -1.35496,0.0572 -2.01395,0.23414 -0.50249,0.084 -1.14825,0.35885 -1.6587,0.16445 -0.0798,-0.0304 -0.13859,-0.0998 -0.20788,-0.14975 -0.34972,-0.7059 -0.28494,-1.52277 -0.21116,-2.28372 0.0783,-0.64229 0.13596,-1.28644 0.1654,-1.93277 0.0489,-0.6558 0.18755,-1.00078 -0.17648,-1.60332 -0.37287,-0.47878 -0.90661,-0.58072 -1.47746,-0.63467 -0.71086,-0.0439 -1.42349,-0.0311 -2.13514,-0.0219 -0.91328,0.015 -1.82671,0.007 -2.74003,0.002 -0.67299,7.9e-4 -1.34594,-0.003 -2.01892,1.6e-4 -2.57408,-0.0371 -1.87076,0.20215 -5.30344,2.1714 -0.45829,0.54341 -0.53614,1.31862 -0.65463,2.00107 -0.11563,0.77899 -0.13554,1.5652 -0.14717,2.35096 0.002,0.70529 -0.011,1.41055 -0.007,2.11582 -0.0191,0.32822 -0.0534,0.55772 -0.31699,0.77042 -0.0998,0.0805 -0.42376,0.28815 -0.31298,0.2236 3.42745,-1.99745 3.82499,-2.16087 2.3379,-1.46634 -0.88899,0.36363 -1.82727,0.57965 -2.77794,0.6981 -0.78784,0.0528 -1.57393,0.0868 -2.35979,0.16962 -0.77276,0.0835 -1.54885,0.12378 -2.32561,0.14108 -0.70151,0.0393 -1.39166,-0.007 -2.07378,-0.17308 -0.52197,-0.0999 -1.00434,-0.3013 -1.47976,-0.53097 0,0 -3.29143,2.17305 -3.29143,2.17305 v 0 c 0.49348,0.23589 0.97729,0.50174 1.52384,0.59616 0.70699,0.18681 1.4143,0.31238 2.15043,0.24743 0.78333,-0.0115 1.56681,-0.0222 2.34593,-0.11497 0.78314,-0.079 1.56051,-0.16729 2.34919,-0.15679 0.98463,-0.10102 1.95278,-0.31271 2.88882,-0.63814 1.82433,-0.72101 1.03478,-0.37707 4.34741,-2.42868 0.44104,-0.27315 0.49057,-0.84532 0.50906,-1.30216 7.9e-4,-0.70102 -0.0177,-1.40208 -0.002,-2.10307 0.0142,-0.76546 0.0417,-1.53417 0.1735,-2.28993 0.12717,-0.62812 0.21996,-1.34406 0.80222,-1.71535 -1.04806,0.58998 -2.09666,1.17901 -3.14418,1.76995 -0.087,0.0491 0.16829,-0.11177 0.26274,-0.14442 0.41618,-0.14382 0.89274,0.002 1.31926,-0.05 0.67373,0.004 1.34743,-7.9e-4 2.02117,-0.001 0.91764,-0.007 1.83533,-0.0189 2.753,-0.0105 0.69919,0.004 1.39855,-0.005 2.09757,0.0123 0.441,0.0211 0.92172,0.004 1.26163,0.32982 0.27249,0.42309 0.0592,0.91803 0.0701,1.3904 -0.0306,0.63807 -0.0873,1.27391 -0.15078,1.9095 -0.0616,0.88236 -0.0536,1.80981 0.38072,2.60504 0.10419,0.10535 0.18791,0.23597 0.31258,0.31604 0.49179,0.31587 1.2447,0.0543 1.76954,0.001 0.63706,-0.18556 1.27459,-0.4079 1.94942,-0.35201 0.87975,0.0406 1.76249,0.12801 2.59158,0.44764 0.8208,0.37136 0.85858,0.59856 0.92022,1.46972 0.0795,0.63465 0.1701,1.26774 0.14039,1.9098 0.007,0.86168 0.004,1.72322 -0.01,2.58481 0.0128,0.72558 0.0267,1.45245 0.10179,2.1748 0.1148,1.02652 0.31198,2.03938 0.4393,3.06397 0.0555,1.15653 0.0315,2.31438 0.025,3.47188 -0.008,0.88436 0.039,1.81558 -0.28094,2.6533 -1.03773,1.0487 -0.22565,0.19588 3.03359,-1.62817 0.0768,-0.043 -0.14286,0.10856 -0.22666,0.13556 -0.34501,0.11119 -0.73317,-0.002 -1.08436,0.0372 -0.91625,-0.0126 -1.83261,-0.0248 -2.7477,-0.0774 -1.55429,-0.0808 -3.10691,-0.20461 -4.66468,-0.14532 -1.74473,-0.0106 -3.49125,-0.009 -5.23317,-0.1212 -1.54401,-0.13256 -3.05989,-0.38116 -4.52028,-0.92347 -1.5341,-0.54891 -2.91111,-1.40462 -4.2091,-2.38507 -1.68818,-1.2689 -3.27424,-2.65166 -4.47629,-4.40909 -0.97342,-1.38512 -1.89225,-2.81447 -2.63399,-4.33917 -0.62173,-1.25807 -1.22293,-2.52689 -1.78756,-3.81166 0,0 -3.44505,1.9652 -3.44505,1.9652 z" />
    <path
       style="fill:#0000ff;stroke-width:0.264583"
       id="path1090"
       d="m 241.89688,144.67671 c -0.99546,-0.35319 -1.99112,-0.70337 -3.01433,-0.96773 -0.9859,-0.25019 -1.9979,-0.37244 -3.01006,-0.45218 -1.07889,-0.0594 -2.16067,-0.0219 -3.23932,-0.0791 -0.63319,-0.0358 -1.25502,-0.21109 -1.89026,-0.16097 -3.37835,1.77762 -3.82379,1.19798 -4.01439,3.92655 -0.0524,1.01941 -0.11542,1.46832 0.78402,2.08103 0.63037,0.31014 1.31817,0.48478 2.00496,0.61885 0.45857,0.0839 0.92504,0.0963 1.38985,0.0967 0.73115,0.0232 1.45668,-0.0368 2.18233,-0.11769 0.65916,-0.0903 1.30679,-0.24423 1.96466,-0.34281 0.43687,-0.0669 0.87934,-0.0655 1.31951,-0.0892 0.47217,-0.086 0.93389,-0.18893 1.41566,-0.18544 0.49219,0.0167 0.23645,0.007 0.76722,0.0279 0,0 3.18683,-2.29328 3.18683,-2.29328 v 0 c -0.51707,-0.0272 -0.26811,-0.0121 -0.74694,-0.0445 -0.49603,-0.0371 -0.97072,-0.036 -1.45146,0.11956 -0.4295,0.10954 -0.88175,0.0268 -1.32022,0.095 -0.66972,0.0827 -1.32695,0.23156 -1.98636,0.37239 -0.70913,0.075 -1.41287,0.17872 -2.12839,0.13274 -0.45225,-0.003 -0.90592,0.006 -1.3563,-0.0433 -0.66166,-0.0881 -1.31,-0.24309 -1.93402,-0.48347 -0.15241,-0.0801 -0.3654,-0.16439 -0.47113,-0.31733 -0.26169,-0.37856 -0.10035,-0.95969 -0.11109,-1.37549 0.0429,-0.38184 0.0728,-0.783 0.22151,-1.14305 0.45814,-1.10908 4.62358,-2.5256 -2.86763,1.36098 0.59714,-0.23588 1.24064,0.0184 1.86041,0.0429 1.07641,0.0894 2.15991,0.004 3.23817,0.0802 0.99885,0.057 2.00185,0.14356 2.97244,0.39982 1.00992,0.21747 1.99945,0.5207 2.94253,0.94659 0,0 3.2918,-2.20579 3.2918,-2.20579 z" />
    <path
       style="fill:#0000ff;stroke-width:0.264583"
       id="path1092"
       d="m 229.23464,147.08737 c 0.78246,0.0759 1.55973,0.17207 2.33313,0.31313 0.51118,0.0843 1.01088,0.22116 1.52223,0.3041 0.52796,0.0608 1.06045,0.0662 1.59129,0.0741 0.42329,-0.0175 0.83869,0.0669 1.255,0.12927 0,0 3.23087,-2.27928 3.23087,-2.27928 v 0 c -0.42738,-0.0558 -0.85075,-0.16495 -1.28006,-0.17609 -0.51987,0.001 -1.04034,0.001 -1.55923,-0.0351 -0.52038,-0.0547 -1.02229,-0.1897 -1.53744,-0.27408 -0.77064,-0.12945 -1.53876,-0.25418 -2.31563,-0.3394 0,0 -3.24016,2.28337 -3.24016,2.28337 z" />
    <path
       style="fill:#0000ff;stroke-width:0.264583"
       id="path1094"
       d="m 237.93177,155.92207 c 0.0328,0.94086 0.0312,1.88268 0.0245,2.82399 -0.008,0.67696 -0.0149,1.35395 -0.0211,2.03094 0,0 3.52569,-1.79643 3.52569,-1.79643 v 0 c -0.006,-0.66984 -0.013,-1.33967 -0.0211,-2.00948 -0.007,-0.94965 -0.008,-1.89978 0.0245,-2.84899 0,0 -3.53264,1.79997 -3.53264,1.79997 z" />
    <path
       style="fill:#0000ff;stroke-width:0.264583"
       id="path1096"
       d="m 235.30873,161.02465 c 0.67074,0.12133 1.31723,0.35004 1.96173,0.56745 0.6063,0.20948 1.20281,0.44453 1.79923,0.68015 0.54743,0.24122 1.11811,0.38512 1.71027,0.45248 0,0 3.21641,-2.29248 3.21641,-2.29248 v 0 c -0.56697,-0.0383 -1.12244,-0.12593 -1.64908,-0.35301 -0.59669,-0.2498 -1.20236,-0.47673 -1.81162,-0.69357 -0.64894,-0.24066 -1.31944,-0.42153 -1.97594,-0.64021 0,0 -3.251,2.27919 -3.251,2.27919 z" />
    <path
       style="fill:#0000ff;stroke-width:0.264583"
       id="path1098"
       d="m 237.874,152.22367 c 0.7047,0.4502 1.43236,0.86823 2.19939,1.20272 0.57224,0.17641 1.11159,0.43801 1.67717,0.63168 0.49198,0.1202 0.98575,0.23765 1.48119,0.34447 0.77744,0.12603 1.57069,0.10884 2.35614,0.12083 0.74407,0.0392 1.47888,0.006 2.21334,-0.1159 0.71589,-0.14721 1.36957,-0.48022 2.01465,-0.81078 1.44185,-0.9379 3.61936,-1.68963 4.79855,-3.19301 0.15379,-0.22001 0.21406,-0.46958 0.27228,-0.72596 0,0 -3.58069,1.69408 -3.58069,1.69408 v 0 c -0.0829,0.2097 -0.17219,0.40586 -0.33398,0.5696 -1.10303,1.12699 -3.92322,2.58506 1.91566,-0.81904 -0.6232,0.35827 -1.27187,0.68631 -1.95417,0.91557 -0.71658,0.16261 -1.4372,0.21609 -2.17187,0.18444 -0.76102,-0.004 -1.52499,-0.002 -2.28232,-0.0858 -0.4924,-0.084 -0.9666,-0.23581 -1.46093,-0.30646 -0.57565,-0.15716 -1.09523,-0.45032 -1.67539,-0.59289 -0.75893,-0.28041 -1.48528,-0.66582 -2.13231,-1.15208 0,0 -3.33671,2.13856 -3.33671,2.13856 z" />
    <path
       style="fill:#d5e5ff;stroke-width:0.194933"
       id="path1108"
       d="m 6.7677286,169.14113 c 0.7998907,-0.47195 1.5842631,-1.02573 2.3815572,-1.51192 0.8849492,-0.46596 1.7590612,-0.99617 2.6462092,-1.44822 0.580472,-0.31165 1.172864,-0.49824 1.77516,-0.57035 0.467413,-0.0395 0.935325,-0.0504 1.401293,0.0322 0.434109,0.12181 0.856244,0.3571 1.277858,0.57816 0.396493,0.23962 0.785392,0.52107 1.176264,0.79044 0.404776,0.29082 0.81959,0.52682 1.235082,0.75876 0.488572,0.28866 0.98252,0.53651 1.488028,0.69909 0.578856,0.19292 1.162731,0.32142 1.745532,0.46508 0.52797,0.1299 1.058577,0.21123 1.590702,0.24877 0.441042,0.0292 0.88244,0.0212 1.323678,0.0223 0.558338,0.0296 1.108955,-0.17011 1.651037,-0.39379 0.461828,-0.24208 0.930188,-0.42868 1.400379,-0.60408 0.300054,-0.14174 0.606565,-0.21382 0.913029,-0.28673 0.313865,-0.13628 0.634445,-0.20018 0.948852,-0.32929 0.411983,-0.17302 0.800152,-0.48619 1.185378,-0.79853 0.348103,-0.28875 0.693665,-0.58711 1.041714,-0.87631 0.371322,-0.28243 0.761454,-0.45587 1.158205,-0.55805 0.538125,-0.0858 1.073363,-0.21597 1.611872,-0.29393 0.521428,-0.062 1.043969,-0.0722 1.566281,-0.0782 0.56073,-0.0179 1.120133,0.0941 1.674207,0.24248 0.439562,0.0892 0.862037,0.32788 1.285574,0.54872 0.378868,0.16808 0.753282,0.36237 1.123398,0.58667 0.491532,0.25801 0.985649,0.50341 1.483923,0.7134 0.425248,0.13624 0.848921,0.29444 1.27554,0.41601 0.601577,0.18645 1.208329,0.30829 1.8128,0.45841 0.935763,0.21937 1.869154,0.46877 2.803565,0.70631 0.643145,0.18037 1.292167,0.25243 1.941749,0.28479 0.771682,0.007 1.543147,0.0362 2.312311,-0.0917 0.632776,-0.1019 1.249279,-0.38043 1.864333,-0.65737 0.441441,-0.22277 0.872933,-0.49762 1.317337,-0.70167 0.494973,-0.26243 0.996645,-0.47055 1.489485,-0.74682 0.414984,-0.21053 0.818369,-0.48777 1.229332,-0.72193 0.430449,-0.26639 0.879316,-0.36938 1.326505,-0.48386 0.495891,-0.17723 0.999636,-0.23298 1.503299,-0.26852 0.442071,-0.0271 0.884402,-0.0247 1.326641,-0.0305 0.661405,-0.0519 1.304962,0.25571 1.944246,0.52343 0.787261,0.33679 1.577247,0.66022 2.376748,0.88218 0.558411,0.15857 1.115601,0.33969 1.66587,0.57681 0.42056,0.21197 0.852062,0.33775 1.2804,0.48404 0.388772,0.13445 0.784774,0.14657 1.175446,0.25141 0.451934,0.13415 0.90327,0.27287 1.357543,0.37769 0.408916,0.0791 0.820438,0.0976 1.231264,0.11145 0.491993,0.0416 0.967029,-0.24218 1.440301,-0.44958 0.389689,-0.13292 0.768957,-0.33379 1.144945,-0.56033 0.294231,-0.16554 0.599818,-0.23881 0.898988,-0.36843 0.419191,-0.17815 0.83626,-0.36949 1.251413,-0.5777 0.37518,-0.20994 0.750838,-0.41305 1.137292,-0.5388 0.231265,-0.0703 0.465705,-0.0847 0.699591,-0.0891 0.271178,-0.0215 0.53715,0.10187 0.799246,0.21503 0.386199,0.11209 0.749536,0.36646 1.116183,0.60368 0.344674,0.20669 0.694244,0.37227 1.053075,0.46688 0.368845,0.10021 0.734847,0.22781 1.105652,0.30251 0.315748,0.0673 0.622794,0.21516 0.942027,0.19976 0.189088,-0.0306 0.09206,-0.0128 0.291055,-0.0543 0,0 1.722491,-2.35499 1.722491,-2.35499 v 0 c -0.196747,0.0326 -0.101429,0.0125 -0.286034,0.0588 -0.33258,0.0819 -0.596783,-0.0104 -0.923848,-0.14114 -0.371739,-0.051 -0.740541,-0.14816 -1.105744,-0.28696 -0.351503,-0.0677 -0.691123,-0.2114 -1.028529,-0.40298 -0.374269,-0.21818 -0.734744,-0.52442 -1.125937,-0.63378 -0.2693,-0.11975 -0.540081,-0.28348 -0.817294,-0.30722 -0.242263,1.7e-4 -0.485084,-0.002 -0.726086,0.0513 -0.396839,0.10031 -0.784102,0.2855 -1.163527,0.52181 -0.412791,0.20364 -0.82276,0.42444 -1.243021,0.57027 -0.296999,0.15713 -0.5991,0.23579 -0.90118,0.34709 -0.383892,0.21257 -0.755805,0.50051 -1.155401,0.61063 -0.458778,0.19867 -0.91804,0.49327 -1.392402,0.50215 -0.409008,-5.3e-4 -0.818543,-0.005 -1.226384,-0.0687 -0.452819,-0.0815 -0.900654,-0.21201 -1.347008,-0.37149 -0.391301,-0.11623 -0.784101,-0.14834 -1.177335,-0.23874 -0.427377,-0.13023 -0.854569,-0.27414 -1.275742,-0.45919 -0.557961,-0.25807 -1.129981,-0.4103 -1.697012,-0.58436 -0.802475,-0.18781 -1.594518,-0.49517 -2.382468,-0.82902 -0.634362,-0.29494 -1.276089,-0.66375 -1.936386,-0.64583 -0.445296,-0.005 -0.890759,-0.003 -1.335848,0.0246 -0.504358,0.0353 -1.013119,0.0515 -1.510632,0.22059 -0.449925,0.14749 -0.911695,0.18121 -1.3492,0.45029 -0.4148,0.21873 -0.818543,0.49007 -1.231242,0.72013 -0.490056,0.28108 -0.984161,0.5095 -1.478922,0.75762 -0.445143,0.20834 -0.886471,0.42275 -1.319797,0.70762 -0.619249,0.283 -1.234064,0.61739 -1.871721,0.734 -0.757276,0.16883 -1.517032,0.1358 -2.27865,0.10732 -0.652801,-0.0199 -1.305694,-0.0673 -1.954136,-0.21727 -0.933467,-0.21037 -1.863129,-0.4722 -2.794489,-0.71088 -0.592946,-0.17133 -1.190277,-0.29354 -1.779438,-0.50398 -0.428045,-0.10007 -0.848936,-0.27708 -1.276845,-0.37905 -0.49432,-0.18675 -0.978654,-0.44814 -1.466029,-0.6869 -0.371498,-0.22403 -0.739401,-0.47445 -1.124201,-0.6116 -0.436612,-0.20473 -0.864386,-0.48873 -1.316136,-0.56544 -0.558809,-0.15203 -1.12191,-0.29951 -1.687792,-0.29693 -0.526012,0.004 -1.052389,0.006 -1.577662,0.0633 -0.539053,0.0563 -1.072094,0.20196 -1.610034,0.26933 -0.406402,0.0654 -0.797799,0.21285 -1.185528,0.45068 -0.355227,0.27 -0.698787,0.58639 -1.047367,0.88325 -0.383271,0.30298 -0.758727,0.65857 -1.164681,0.84892 -0.307447,0.16346 -0.62078,0.19774 -0.931214,0.33446 -0.301669,0.14389 -0.62364,0.11294 -0.923977,0.28726 -0.47398,0.21186 -0.958562,0.34656 -1.423803,0.62704 -0.521346,0.25379 -1.065732,0.45145 -1.606244,0.44839 -0.440298,0.002 -0.880614,5.3e-4 -1.320877,-0.0103 -0.531331,-0.0244 -1.062628,-0.0731 -1.590089,-0.20007 -0.579839,-0.14658 -1.161791,-0.26541 -1.737476,-0.4629 -0.499199,-0.13813 -0.985689,-0.37087 -1.463565,-0.67076 -0.412529,-0.2169 -0.824539,-0.44213 -1.22042,-0.74942 -0.40106,-0.25371 -0.797212,-0.52976 -1.194695,-0.80095 -0.430874,-0.21977 -0.856909,-0.47386 -1.296054,-0.634 -0.475698,-0.10578 -0.949887,-0.11454 -1.429091,-0.073 -0.62418,0.0475 -1.237067,0.20392 -1.835969,0.549 -0.885569,0.45541 -1.76207,0.9662 -2.647026,1.42564 -0.777185,0.47501 -1.5409345,1.02384 -2.3273262,1.44603 0,0 -1.7023712,2.42393 -1.7023712,2.42393 z" />
    <path
       style="fill:#d5e5ff;stroke-width:0.195253"
       id="path1110"
       d="m 10.085274,170.42923 c 0.346154,-1.05322 0.754503,-2.03237 1.242203,-2.87551 0.09351,-0.12695 0.185282,-0.25834 0.280532,-0.38085 0.101454,-0.1305 0.204337,-0.25744 0.309392,-0.37794 0.100938,-0.11578 0.41077,-0.44182 0.308323,-0.3306 -2.3228845,2.52186 -1.775919,1.72831 -0.839266,1.21625 0.589885,-0.30876 1.197113,-0.43052 1.807535,-0.48121 0.495411,-0.083 0.977867,0.12738 1.459477,0.30469 0.384963,0.17048 0.759295,0.42063 1.131292,0.66887 0.529776,0.3278 1.039111,0.75026 1.555606,1.13961 0.554224,0.3452 1.063607,0.87125 1.575355,1.3833 0.549849,0.50086 1.077565,1.082 1.647179,1.50572 0.43602,0.33653 0.895585,0.37874 1.361025,0.40547 0.555032,0.0418 1.107564,-0.0948 1.656061,-0.2327 0.505032,-0.11901 1.00405,-0.30634 1.50859,-0.43187 0.46772,-0.0762 0.932333,-0.19562 1.395631,-0.33485 0.447928,-0.13308 0.892034,-0.30808 1.336278,-0.47745 0.315357,-0.11404 0.624264,-0.27174 0.931933,-0.4406 0.345225,-0.22839 0.695502,-0.42795 1.044079,-0.63796 0.539974,-0.38027 1.092343,-0.69299 1.643388,-1.013 0.576563,-0.29715 1.167076,-0.49366 1.758356,-0.66129 0.744874,-0.20335 1.495571,-0.23999 2.246644,-0.18338 0.611313,0.007 1.195129,0.30318 1.766555,0.67115 0.504867,0.29755 0.995284,0.67465 1.509263,0.91788 0.431654,0.17491 0.863768,0.35352 1.299409,0.49197 0.61337,0.1815 1.226955,0.36356 1.842632,0.51662 0.632896,0.16442 1.264855,0.33908 1.895013,0.53587 0.62229,0.17998 1.255746,0.0707 1.881761,0.0243 0.66423,-0.0671 1.323972,-0.21357 1.98244,-0.38132 0.407339,-0.078 0.806919,-0.23907 1.202658,-0.42732 0.346563,-0.17891 0.691329,-0.27349 1.050815,-0.26855 0.314268,-0.0187 0.6188,0.0936 0.9246,0.20632 0.42414,0.13586 0.848955,0.24326 1.277926,0.31115 0.575036,0.0937 1.137531,0.34182 1.698021,0.5847 0.344972,0.15871 0.69636,0.25364 1.050755,0.29838 0.289288,0.0281 0.579055,0.0218 0.868561,0.0133 0.541494,0.0195 1.076127,-0.15745 1.604454,-0.35562 0.575057,-0.22776 1.13521,-0.5673 1.68983,-0.92369 0.47091,-0.31095 0.947031,-0.59749 1.429454,-0.84224 0.45253,-0.2141 0.893874,-0.49718 1.339161,-0.75584 0.434139,-0.2331 0.873783,-0.43797 1.317415,-0.60107 0.47873,-0.15357 0.966195,-0.16118 1.450677,-0.17359 0.662999,-0.004 1.325061,-0.0428 1.985603,0.0768 0.5992,0.15393 1.179982,0.4611 1.756107,0.78997 0.440032,0.24636 0.87874,0.49628 1.322469,0.71974 0.692483,0.29309 1.322981,0.89012 1.967055,1.41699 0.461587,0.41054 0.938857,0.74634 1.434873,0.98413 0.481693,0.21254 0.976423,0.21714 1.468534,0.22724 0.638443,0.004 1.276369,0.0446 1.911735,-0.0851 0.479684,-0.10671 0.953044,-0.27145 1.410955,-0.55589 0.364224,-0.21514 0.721613,-0.4663 1.07579,-0.73152 0.944564,-0.75205 1.821817,-1.83013 2.705676,-2.75702 0.563333,-0.59076 -1.122783,1.19391 -1.684172,1.79087 4.038825,-4.27546 1.379608,-1.46159 0.305495,-0.32049 -0.07113,0.0756 0.140342,-0.15749 0.36161,-0.36458 0.254244,-0.23794 0.232422,-0.2114 0.502099,-0.42786 0.512376,-0.42184 1.055493,-0.66898 1.608141,-0.82721 0.276855,-0.0754 0.556683,-0.0906 0.835973,-0.10291 0,0 1.730614,-2.31855 1.730614,-2.31855 v 0 c -0.285231,0.008 -0.57105,0.0142 -0.855104,0.0675 -0.563551,0.1428 -1.124509,0.35722 -1.650423,0.76696 -1.28621,0.90238 -5.085451,5.31665 -1.166982,1.0503 -0.663103,0.70069 -1.32694,1.39906 -1.989318,2.10207 -0.557773,0.59198 1.117751,-1.17695 1.675501,-1.769 0.05608,-0.0595 -0.11407,0.11281 -0.170452,0.17137 -0.257102,0.26704 -0.09326,0.11665 -0.354699,0.35415 -0.05614,0.051 -0.112747,0.10024 -0.169118,0.15037 -0.353512,0.25844 -0.702161,0.54345 -1.067724,0.74235 -0.457236,0.30652 -0.919824,0.55734 -1.406854,0.65332 -0.627442,0.17078 -1.25794,0.13815 -1.891013,0.12558 -0.476819,-0.0132 -0.956688,-0.0189 -1.427619,-0.17364 -0.495461,-0.19956 -0.973369,-0.51604 -1.434508,-0.9038 -0.654199,-0.50114 -1.280203,-1.13432 -1.968254,-1.47713 -0.440418,-0.23669 -0.879257,-0.48203 -1.32029,-0.71374 -0.591516,-0.32156 -1.182988,-0.64447 -1.79327,-0.82918 -0.662318,-0.15313 -1.327386,-0.13405 -1.994056,-0.12327 -0.485173,0.003 -0.973047,-0.0247 -1.454979,0.0978 -0.453848,0.13032 -0.895094,0.37123 -1.34123,0.56775 -0.439994,0.26415 -0.879546,0.53063 -1.324724,0.7626 -0.497257,0.22683 -0.982686,0.5355 -1.465212,0.84995 -0.543161,0.36463 -1.094905,0.68961 -1.657323,0.93861 -0.511651,0.22804 -1.038507,0.43338 -1.567019,0.41086 -0.284637,-0.006 -0.569247,-10e-4 -0.853873,-0.008 -0.352701,-0.0189 -0.704377,-0.0765 -1.049617,-0.21727 -0.570342,-0.22261 -1.13643,-0.49381 -1.715583,-0.62941 -0.41906,-0.0563 -0.832335,-0.15901 -1.244293,-0.30436 -0.317727,-0.10033 -0.628826,-0.27144 -0.954683,-0.24617 -0.195907,-0.0122 -0.407389,-0.0562 -0.602723,-0.0176 -0.07364,0.0145 -0.242366,0.11858 -0.31471,0.14655 -0.05315,0.0206 -0.107443,0.0299 -0.161167,0.0448 -0.400587,0.18404 -0.795596,0.42077 -1.209547,0.48899 -0.657864,0.18143 -1.314899,0.35259 -1.979565,0.42916 -0.614061,0.0372 -1.234337,0.1497 -1.846084,0.0219 -0.636194,-0.17365 -1.270881,-0.3627 -1.907367,-0.53285 -0.610454,-0.14291 -1.218417,-0.32731 -1.824209,-0.52457 -0.431781,-0.12487 -0.857888,-0.31337 -1.285086,-0.4809 -0.517429,-0.19024 -1.007687,-0.54618 -1.505764,-0.85847 -0.581904,-0.42915 -1.198785,-0.71858 -1.82858,-0.74139 -0.754331,-0.0635 -1.50971,-0.10145 -2.259256,0.1115 -0.59065,0.14271 -1.177603,0.33726 -1.757881,0.58484 -0.558107,0.30274 -1.109268,0.652 -1.656594,1.01548 -0.337987,0.22168 -0.68625,0.37056 -1.022429,0.60079 -0.29596,0.22681 -0.613662,0.35578 -0.925118,0.48951 -0.44335,0.20335 -0.896025,0.34892 -1.343564,0.51623 -0.456995,0.14434 -0.914765,0.2688 -1.377646,0.32766 -0.51145,0.11922 -1.015215,0.3182 -1.525462,0.45075 -0.539651,0.14192 -1.083766,0.28664 -1.629924,0.27745 -0.445304,-0.017 -0.892262,-0.0319 -1.318796,-0.29918 -0.574716,-0.37215 -1.097633,-0.94817 -1.640849,-1.4486 -0.514933,-0.52025 -1.021196,-1.08365 -1.579693,-1.43562 -0.520277,-0.36604 -1.027408,-0.79375 -1.54933,-1.15334 -0.377067,-0.27776 -0.765108,-0.5095 -1.153435,-0.72586 -0.495866,-0.16215 -0.990953,-0.42934 -1.498788,-0.36432 -0.623711,0.0493 -1.24584,0.11781 -1.850709,0.4305 -0.06916,0.0328 -0.620655,0.28452 -0.693376,0.35509 -1.012017,0.98211 -2.099333,1.97972 -2.9888212,3.35948 -0.4789853,0.91173 -0.893337,1.93401 -1.2550342,3.01254 0,0 1.9646564,-1.61906 1.9646564,-1.61906 z" />
    <path
       style="fill:#d5e5ff;stroke-width:0.264583"
       id="path1112"
       d="m 14.104797,170.60095 c 0.938689,-0.32298 1.883632,-0.62714 2.851849,-0.84817 0.735872,-0.16411 1.425548,0.002 2.128983,0.2064 1.665197,0.29583 3.340978,0.53517 4.978016,0.96682 0.487966,0.14179 0.973442,0.29161 1.457825,0.44508 0,0 3.237608,-2.20339 3.237608,-2.20339 v 0 c -0.500337,-0.15935 -1.005639,-0.29712 -1.513094,-0.43241 -1.621162,-0.41525 -3.28087,-0.64685 -4.919516,-0.98249 -0.736569,-0.25205 -1.456468,-0.48136 -2.249864,-0.36662 -0.966848,0.18449 -1.894533,0.50464 -2.837648,0.77987 0,0 -3.134159,2.43491 -3.134159,2.43491 z" />
    <path
       style="fill:#d5e5ff;stroke-width:0.264583"
       id="path1114"
       d="m 32.443023,170.53002 c 0.83435,0.2427 1.659313,0.43121 2.525702,0.51356 1.396807,0.13906 2.797302,-0.006 4.165727,-0.29133 0.465489,-0.1135 0.927063,-0.24156 1.391208,-0.3603 0,0 3.115762,-2.37978 3.115762,-2.37978 v 0 c -0.478858,0.11152 -0.950253,0.24488 -1.420783,0.38803 -1.331177,0.34316 -2.716485,0.51269 -4.090694,0.39211 -0.830675,-0.0791 -1.628322,-0.22589 -2.415384,-0.50883 0,0 -3.271538,2.24654 -3.271538,2.24654 z" />
    <path
       style="fill:#d5e5ff;stroke-width:0.264583"
       id="path1116"
       d="m 52.235545,167.97469 c 1.08869,0.54263 2.23616,0.95044 3.36373,1.40227 1.06823,0.42701 2.12247,0.88118 3.1543,1.38973 0.92644,0.45902 1.8824,0.84485 2.79686,1.32889 0.80545,0.5484 1.69,0.88813 2.61696,1.16568 0.17792,0.046 0.35584,0.0921 0.53376,0.13809 0,0 3.20781,-2.21467 3.20781,-2.21467 v 0 c -0.17569,-0.0407 -0.35138,-0.0815 -0.52706,-0.12222 -0.90252,-0.2563 -1.77566,-0.57929 -2.5597,-1.10674 -0.9154,-0.49454 -1.87388,-0.88261 -2.80902,-1.33504 -1.04302,-0.52163 -2.11272,-0.97278 -3.19911,-1.39645 -1.09693,-0.44353 -2.22339,-0.83503 -3.26144,-1.40815 0,0 -3.31709,2.15861 -3.31709,2.15861 z" />
    <rect
       style="fill:#808080;stroke-width:0.112351"
       id="rect12-5-4"
       width="24.873228"
       height="0.34331885"
       x="-166.73181"
       y="220.39862"
       transform="matrix(0.01126662,-0.99993653,0.99999993,3.6629181e-4,0,0)" />
    <rect
       style="fill:#808080;stroke-width:0.112351"
       id="rect12-5-7-6"
       width="24.873228"
       height="0.34331885"
       x="-166.88704"
       y="265.32419"
       transform="matrix(0.01126662,-0.99993653,0.99999993,3.6629181e-4,0,0)" />
    <rect
       style="fill:#808080;stroke-width:0.112351"
       id="rect12-5-3-0-4"
       width="24.873228"
       height="0.34331885"
       x="-167.405"
       y="270.99411"
       transform="matrix(0.01126662,-0.99993653,0.99999993,3.6629181e-4,0,0)" />
    <rect
       style="fill:#808080;stroke-width:0.112351"
       id="rect12-5-9-9"
       width="24.873228"
       height="0.34331885"
       x="-166.91458"
       y="209.45961"
       transform="matrix(0.01126662,-0.99993653,0.99999993,3.6629181e-4,0,0)" />
    <rect
       style="fill:#808080;stroke-width:0.112351"
       id="rect12-5-3-3-5"
       width="24.873228"
       height="0.34331885"
       x="-167.43256"
       y="215.12952"
       transform="matrix(0.01126662,-0.99993653,0.99999993,3.6629181e-4,0,0)" />
    <rect
       style="fill:#808080;stroke-width:0.112351"
       id="rect12-5-6-0"
       width="24.873228"
       height="0.34331885"
       x="-165.91338"
       y="276.99716"
       transform="matrix(0.01126662,-0.99993653,0.99999993,3.6629181e-4,0,0)" />
    <path
       style="fill:#d5e5ff;stroke-width:0.194933"
       id="path1108-8"
       d="m 199.5541,168.36731 c 0.79989,-0.47195 1.58427,-1.02573 2.38156,-1.51192 0.88495,-0.46596 1.75906,-0.99617 2.64621,-1.44822 0.58047,-0.31165 1.17286,-0.49824 1.77516,-0.57035 0.46741,-0.0395 0.93532,-0.0504 1.40129,0.0322 0.43411,0.12181 0.85625,0.3571 1.27786,0.57816 0.39649,0.23962 0.78539,0.52107 1.17626,0.79044 0.40478,0.29082 0.81959,0.52682 1.23509,0.75876 0.48857,0.28866 0.98252,0.53651 1.48802,0.69909 0.57886,0.19292 1.16274,0.32142 1.74554,0.46508 0.52797,0.1299 1.05857,0.21123 1.5907,0.24877 0.44104,0.0292 0.88244,0.0212 1.32368,0.0223 0.55833,0.0296 1.10895,-0.17011 1.65103,-0.39379 0.46183,-0.24208 0.93019,-0.42868 1.40038,-0.60408 0.30006,-0.14174 0.60657,-0.21382 0.91303,-0.28673 0.31387,-0.13628 0.63445,-0.20018 0.94885,-0.32929 0.41199,-0.17302 0.80016,-0.48619 1.18538,-0.79853 0.3481,-0.28875 0.69367,-0.58711 1.04172,-0.87631 0.37132,-0.28243 0.76145,-0.45587 1.1582,-0.55805 0.53812,-0.0858 1.07336,-0.21597 1.61187,-0.29393 0.52143,-0.062 1.04397,-0.0722 1.56628,-0.0782 0.56073,-0.0179 1.12014,0.0941 1.67421,0.24248 0.43956,0.0892 0.86204,0.32788 1.28558,0.54872 0.37886,0.16808 0.75328,0.36237 1.12339,0.58667 0.49153,0.25801 0.98565,0.50341 1.48392,0.7134 0.42525,0.13624 0.84892,0.29444 1.27554,0.41601 0.60158,0.18645 1.20833,0.30829 1.8128,0.45841 0.93577,0.21937 1.86916,0.46877 2.80357,0.70631 0.64314,0.18037 1.29217,0.25243 1.94175,0.28479 0.77168,0.007 1.54315,0.0362 2.31231,-0.0917 0.63277,-0.1019 1.24928,-0.38043 1.86433,-0.65737 0.44144,-0.22277 0.87294,-0.49762 1.31734,-0.70167 0.49497,-0.26243 0.99664,-0.47055 1.48948,-0.74682 0.41499,-0.21053 0.81837,-0.48777 1.22934,-0.72193 0.43044,-0.26639 0.87931,-0.36938 1.3265,-0.48386 0.49589,-0.17723 0.99964,-0.23298 1.5033,-0.26852 0.44207,-0.0271 0.8844,-0.0247 1.32664,-0.0305 0.6614,-0.0519 1.30496,0.25571 1.94425,0.52343 0.78726,0.33679 1.57724,0.66022 2.37674,0.88218 0.55842,0.15857 1.11561,0.33969 1.66587,0.57681 0.42056,0.21197 0.85207,0.33775 1.2804,0.48404 0.38878,0.13445 0.78478,0.14657 1.17545,0.25141 0.45194,0.13415 0.90327,0.27287 1.35754,0.37769 0.40892,0.0791 0.82044,0.0976 1.23127,0.11145 0.49199,0.0416 0.96703,-0.24218 1.4403,-0.44958 0.38969,-0.13292 0.76896,-0.33379 1.14494,-0.56033 0.29423,-0.16554 0.59982,-0.23881 0.89899,-0.36843 0.41919,-0.17815 0.83626,-0.36949 1.25142,-0.5777 0.37517,-0.20994 0.75083,-0.41305 1.13729,-0.5388 0.23126,-0.0703 0.4657,-0.0847 0.69959,-0.0891 0.27118,-0.0215 0.53715,0.10187 0.79924,0.21503 0.3862,0.11209 0.74954,0.36646 1.11619,0.60368 0.34467,0.20669 0.69424,0.37227 1.05307,0.46688 0.36885,0.10021 0.73485,0.22781 1.10565,0.30251 0.31575,0.0673 0.6228,0.21516 0.94203,0.19976 0.18909,-0.0306 0.0921,-0.0128 0.29106,-0.0543 0,0 1.72249,-2.35499 1.72249,-2.35499 v 0 c -0.19675,0.0326 -0.10143,0.0125 -0.28604,0.0588 -0.33258,0.0819 -0.59678,-0.0104 -0.92385,-0.14114 -0.37173,-0.051 -0.74054,-0.14816 -1.10574,-0.28696 -0.3515,-0.0677 -0.69112,-0.2114 -1.02853,-0.40298 -0.37427,-0.21818 -0.73474,-0.52442 -1.12593,-0.63378 -0.2693,-0.11975 -0.54009,-0.28348 -0.8173,-0.30722 -0.24226,1.7e-4 -0.48508,-0.002 -0.72608,0.0513 -0.39685,0.10031 -0.78411,0.2855 -1.16353,0.52181 -0.41279,0.20364 -0.82276,0.42444 -1.24302,0.57027 -0.297,0.15713 -0.5991,0.23579 -0.90118,0.34709 -0.38389,0.21257 -0.75581,0.50051 -1.1554,0.61063 -0.45878,0.19867 -0.91804,0.49327 -1.39241,0.50215 -0.409,-5.3e-4 -0.81854,-0.005 -1.22638,-0.0687 -0.45282,-0.0815 -0.90065,-0.21201 -1.34701,-0.37149 -0.3913,-0.11623 -0.7841,-0.14834 -1.17733,-0.23874 -0.42738,-0.13023 -0.85457,-0.27414 -1.27575,-0.45919 -0.55796,-0.25807 -1.12998,-0.4103 -1.69701,-0.58436 -0.80247,-0.18781 -1.59452,-0.49517 -2.38247,-0.82902 -0.63436,-0.29494 -1.27608,-0.66375 -1.93638,-0.64583 -0.4453,-0.005 -0.89076,-0.003 -1.33585,0.0246 -0.50436,0.0353 -1.01312,0.0515 -1.51063,0.22059 -0.44993,0.14749 -0.9117,0.18121 -1.3492,0.45029 -0.4148,0.21873 -0.81855,0.49007 -1.23124,0.72013 -0.49006,0.28108 -0.98417,0.5095 -1.47893,0.75762 -0.44514,0.20834 -0.88647,0.42275 -1.31979,0.70762 -0.61925,0.283 -1.23407,0.61739 -1.87172,0.734 -0.75728,0.16883 -1.51704,0.1358 -2.27865,0.10732 -0.6528,-0.0199 -1.3057,-0.0673 -1.95414,-0.21727 -0.93347,-0.21037 -1.86313,-0.4722 -2.79449,-0.71088 -0.59295,-0.17133 -1.19028,-0.29354 -1.77944,-0.50398 -0.42804,-0.10007 -0.84893,-0.27708 -1.27684,-0.37905 -0.49432,-0.18675 -0.97866,-0.44814 -1.46603,-0.6869 -0.3715,-0.22403 -0.7394,-0.47445 -1.1242,-0.6116 -0.43661,-0.20473 -0.86438,-0.48873 -1.31613,-0.56544 -0.55882,-0.15203 -1.12191,-0.29951 -1.6878,-0.29693 -0.52601,0.004 -1.05239,0.006 -1.57766,0.0633 -0.53905,0.0563 -1.07209,0.20196 -1.61003,0.26933 -0.4064,0.0654 -0.7978,0.21285 -1.18553,0.45068 -0.35523,0.27 -0.69879,0.58639 -1.04737,0.88325 -0.38327,0.30298 -0.75873,0.65857 -1.16468,0.84892 -0.30745,0.16346 -0.62078,0.19774 -0.93121,0.33446 -0.30167,0.14389 -0.62364,0.11294 -0.92398,0.28726 -0.47398,0.21186 -0.95856,0.34656 -1.4238,0.62704 -0.52135,0.25379 -1.06574,0.45145 -1.60625,0.44839 -0.4403,0.002 -0.88061,5.3e-4 -1.32088,-0.0103 -0.53133,-0.0244 -1.06262,-0.0731 -1.59008,-0.20007 -0.57984,-0.14658 -1.16179,-0.26541 -1.73748,-0.4629 -0.4992,-0.13813 -0.98569,-0.37087 -1.46357,-0.67076 -0.41252,-0.2169 -0.82453,-0.44213 -1.22042,-0.74942 -0.40105,-0.25371 -0.79721,-0.52976 -1.19469,-0.80095 -0.43087,-0.21977 -0.85691,-0.47386 -1.29605,-0.634 -0.4757,-0.10578 -0.94989,-0.11454 -1.4291,-0.073 -0.62418,0.0475 -1.23706,0.20392 -1.83596,0.549 -0.88557,0.45541 -1.76207,0.9662 -2.64703,1.42564 -0.77719,0.47501 -1.54093,1.02384 -2.32733,1.44603 0,0 -1.70237,2.42393 -1.70237,2.42393 z" />
    <path
       style="fill:#d5e5ff;stroke-width:0.195253"
       id="path1110-7"
       d="m 202.87165,169.65541 c 0.34615,-1.05322 0.7545,-2.03237 1.2422,-2.87551 0.0935,-0.12695 0.18528,-0.25834 0.28053,-0.38085 0.10146,-0.1305 0.20434,-0.25744 0.30939,-0.37794 0.10094,-0.11578 0.41077,-0.44182 0.30833,-0.3306 -2.32289,2.52186 -1.77592,1.72831 -0.83927,1.21625 0.58989,-0.30876 1.19711,-0.43052 1.80754,-0.48121 0.49541,-0.083 0.97786,0.12738 1.45947,0.30469 0.38497,0.17048 0.7593,0.42063 1.1313,0.66887 0.52977,0.3278 1.03911,0.75026 1.5556,1.13961 0.55423,0.3452 1.06361,0.87125 1.57536,1.3833 0.54985,0.50086 1.07756,1.082 1.64718,1.50572 0.43602,0.33653 0.89558,0.37874 1.36102,0.40547 0.55503,0.0418 1.10757,-0.0948 1.65606,-0.2327 0.50503,-0.11901 1.00405,-0.30634 1.50859,-0.43187 0.46772,-0.0762 0.93234,-0.19562 1.39563,-0.33485 0.44793,-0.13308 0.89204,-0.30808 1.33628,-0.47745 0.31536,-0.11404 0.62427,-0.27174 0.93193,-0.4406 0.34523,-0.22839 0.69551,-0.42795 1.04408,-0.63796 0.53998,-0.38027 1.09235,-0.69299 1.64339,-1.013 0.57656,-0.29715 1.16708,-0.49366 1.75836,-0.66129 0.74487,-0.20335 1.49557,-0.23999 2.24664,-0.18338 0.61132,0.007 1.19513,0.30318 1.76656,0.67115 0.50486,0.29755 0.99528,0.67465 1.50926,0.91788 0.43165,0.17491 0.86377,0.35352 1.29941,0.49197 0.61337,0.1815 1.22695,0.36356 1.84263,0.51662 0.63289,0.16442 1.26485,0.33908 1.89501,0.53587 0.62229,0.17998 1.25575,0.0707 1.88176,0.0243 0.66423,-0.0671 1.32398,-0.21357 1.98244,-0.38132 0.40734,-0.078 0.80692,-0.23907 1.20266,-0.42732 0.34656,-0.17891 0.69133,-0.27349 1.05082,-0.26855 0.31426,-0.0187 0.6188,0.0936 0.9246,0.20632 0.42414,0.13586 0.84895,0.24326 1.27792,0.31115 0.57504,0.0937 1.13753,0.34182 1.69802,0.5847 0.34497,0.15871 0.69636,0.25364 1.05076,0.29838 0.28928,0.0281 0.57905,0.0218 0.86856,0.0133 0.54149,0.0195 1.07612,-0.15745 1.60445,-0.35562 0.57506,-0.22776 1.13521,-0.5673 1.68983,-0.92369 0.47091,-0.31095 0.94703,-0.59749 1.42946,-0.84224 0.45253,-0.2141 0.89387,-0.49718 1.33916,-0.75584 0.43414,-0.2331 0.87378,-0.43797 1.31741,-0.60107 0.47873,-0.15357 0.9662,-0.16118 1.45068,-0.17359 0.663,-0.004 1.32506,-0.0428 1.9856,0.0768 0.5992,0.15393 1.17998,0.4611 1.75611,0.78997 0.44003,0.24636 0.87874,0.49628 1.32247,0.71974 0.69248,0.29309 1.32298,0.89012 1.96705,1.41699 0.46159,0.41054 0.93886,0.74634 1.43488,0.98413 0.48169,0.21254 0.97642,0.21714 1.46853,0.22724 0.63844,0.004 1.27637,0.0446 1.91174,-0.0851 0.47968,-0.10671 0.95304,-0.27145 1.41095,-0.55589 0.36423,-0.21514 0.72161,-0.4663 1.07579,-0.73152 0.94457,-0.75205 1.82182,-1.83013 2.70568,-2.75702 0.56333,-0.59076 -1.12279,1.19391 -1.68418,1.79087 4.03883,-4.27546 1.37961,-1.46159 0.3055,-0.32049 -0.0711,0.0756 0.14034,-0.15749 0.36161,-0.36458 0.25424,-0.23794 0.23242,-0.2114 0.5021,-0.42786 0.51237,-0.42184 1.05549,-0.66898 1.60814,-0.82721 0.27686,-0.0754 0.55668,-0.0906 0.83597,-0.10291 0,0 1.73062,-2.31855 1.73062,-2.31855 v 0 c -0.28524,0.008 -0.57105,0.0142 -0.85511,0.0675 -0.56355,0.1428 -1.12451,0.35722 -1.65042,0.76696 -1.28621,0.90238 -5.08545,5.31665 -1.16698,1.0503 -0.6631,0.70069 -1.32694,1.39906 -1.98932,2.10207 -0.55777,0.59198 1.11775,-1.17695 1.6755,-1.769 0.0561,-0.0595 -0.11407,0.11281 -0.17045,0.17137 -0.2571,0.26704 -0.0933,0.11665 -0.3547,0.35415 -0.0561,0.051 -0.11275,0.10024 -0.16912,0.15037 -0.35351,0.25844 -0.70216,0.54345 -1.06772,0.74235 -0.45724,0.30652 -0.91983,0.55734 -1.40686,0.65332 -0.62744,0.17078 -1.25794,0.13815 -1.89101,0.12558 -0.47682,-0.0132 -0.95669,-0.0189 -1.42762,-0.17364 -0.49546,-0.19956 -0.97337,-0.51604 -1.43451,-0.9038 -0.6542,-0.50114 -1.2802,-1.13432 -1.96825,-1.47713 -0.44042,-0.23669 -0.87926,-0.48203 -1.32029,-0.71374 -0.59152,-0.32156 -1.18299,-0.64447 -1.79327,-0.82918 -0.66232,-0.15313 -1.32739,-0.13405 -1.99406,-0.12327 -0.48517,0.003 -0.97304,-0.0247 -1.45497,0.0978 -0.45385,0.13032 -0.8951,0.37123 -1.34124,0.56775 -0.43999,0.26415 -0.87954,0.53063 -1.32472,0.7626 -0.49726,0.22683 -0.98269,0.5355 -1.46521,0.84995 -0.54316,0.36463 -1.09491,0.68961 -1.65733,0.93861 -0.51165,0.22804 -1.0385,0.43338 -1.56701,0.41086 -0.28464,-0.006 -0.56925,-10e-4 -0.85388,-0.008 -0.3527,-0.0189 -0.70437,-0.0765 -1.04961,-0.21727 -0.57035,-0.22261 -1.13643,-0.49381 -1.71559,-0.62941 -0.41906,-0.0563 -0.83233,-0.15901 -1.24429,-0.30436 -0.31773,-0.10033 -0.62883,-0.27144 -0.95468,-0.24617 -0.19591,-0.0122 -0.40739,-0.0562 -0.60272,-0.0176 -0.0736,0.0145 -0.24237,0.11858 -0.31472,0.14655 -0.0532,0.0206 -0.10744,0.0299 -0.16116,0.0448 -0.40059,0.18404 -0.7956,0.42077 -1.20955,0.48899 -0.65786,0.18143 -1.3149,0.35259 -1.97956,0.42916 -0.61407,0.0372 -1.23434,0.1497 -1.84609,0.0219 -0.63619,-0.17365 -1.27088,-0.3627 -1.90736,-0.53285 -0.61046,-0.14291 -1.21842,-0.32731 -1.82421,-0.52457 -0.43178,-0.12487 -0.85789,-0.31337 -1.28509,-0.4809 -0.51743,-0.19024 -1.00769,-0.54618 -1.50576,-0.85847 -0.58191,-0.42915 -1.19879,-0.71858 -1.82858,-0.74139 -0.75433,-0.0635 -1.50971,-0.10145 -2.25926,0.1115 -0.59065,0.14271 -1.1776,0.33726 -1.75788,0.58484 -0.55811,0.30274 -1.10927,0.652 -1.65659,1.01548 -0.33799,0.22168 -0.68625,0.37056 -1.02243,0.60079 -0.29596,0.22681 -0.61366,0.35578 -0.92512,0.48951 -0.44335,0.20335 -0.89603,0.34892 -1.34356,0.51623 -0.457,0.14434 -0.91477,0.2688 -1.37765,0.32766 -0.51145,0.11922 -1.01522,0.3182 -1.52546,0.45075 -0.53965,0.14192 -1.08377,0.28664 -1.62993,0.27745 -0.4453,-0.017 -0.89226,-0.0319 -1.31879,-0.29918 -0.57472,-0.37215 -1.09764,-0.94817 -1.64085,-1.4486 -0.51493,-0.52025 -1.0212,-1.08365 -1.57969,-1.43562 -0.52028,-0.36604 -1.02741,-0.79375 -1.54934,-1.15334 -0.37706,-0.27776 -0.7651,-0.5095 -1.15343,-0.72586 -0.49587,-0.16215 -0.99095,-0.42934 -1.49879,-0.36432 -0.62371,0.0493 -1.24584,0.11781 -1.85071,0.4305 -0.0692,0.0328 -0.62065,0.28452 -0.69337,0.35509 -1.01202,0.98211 -2.09934,1.97972 -2.98882,3.35948 -0.47899,0.91173 -0.89334,1.93401 -1.25504,3.01254 0,0 1.96466,-1.61906 1.96466,-1.61906 z" />
    <path
       style="fill:#d5e5ff;stroke-width:0.264583"
       id="path1112-1"
       d="m 206.89117,169.82713 c 0.93869,-0.32298 1.88363,-0.62714 2.85185,-0.84817 0.73587,-0.16411 1.42555,0.002 2.12898,0.2064 1.6652,0.29583 3.34098,0.53517 4.97802,0.96682 0.48796,0.14179 0.97344,0.29161 1.45782,0.44508 0,0 3.23761,-2.20339 3.23761,-2.20339 v 0 c -0.50033,-0.15935 -1.00564,-0.29712 -1.51309,-0.43241 -1.62116,-0.41525 -3.28087,-0.64685 -4.91952,-0.98249 -0.73657,-0.25205 -1.45647,-0.48136 -2.24986,-0.36662 -0.96685,0.18449 -1.89454,0.50464 -2.83765,0.77987 0,0 -3.13416,2.43491 -3.13416,2.43491 z" />
    <path
       style="fill:#d5e5ff;stroke-width:0.264583"
       id="path1114-7"
       d="m 225.2294,169.7562 c 0.83435,0.2427 1.65931,0.43121 2.5257,0.51356 1.3968,0.13906 2.7973,-0.006 4.16573,-0.29133 0.46548,-0.1135 0.92706,-0.24156 1.3912,-0.3603 0,0 3.11576,-2.37978 3.11576,-2.37978 v 0 c -0.47886,0.11152 -0.95025,0.24488 -1.42078,0.38803 -1.33117,0.34316 -2.71648,0.51269 -4.09069,0.39211 -0.83068,-0.0791 -1.62832,-0.22589 -2.41539,-0.50883 0,0 -3.27153,2.24654 -3.27153,2.24654 z" />
    <path
       style="fill:#d5e5ff;stroke-width:0.264583"
       id="path1116-2"
       d="m 245.02192,167.20087 c 1.08869,0.54263 2.23616,0.95044 3.36373,1.40227 1.06823,0.42701 2.12247,0.88118 3.1543,1.38973 0.92644,0.45902 1.8824,0.84485 2.79686,1.32889 0.80545,0.5484 1.69,0.88813 2.61696,1.16568 0.17792,0.046 0.35584,0.0921 0.53376,0.13809 0,0 3.20781,-2.21467 3.20781,-2.21467 v 0 c -0.17569,-0.0407 -0.35138,-0.0815 -0.52706,-0.12222 -0.90252,-0.2563 -1.77566,-0.57929 -2.5597,-1.10674 -0.9154,-0.49454 -1.87388,-0.88261 -2.80902,-1.33504 -1.04302,-0.52163 -2.11272,-0.97278 -3.19911,-1.39645 -1.09693,-0.44353 -2.22339,-0.83503 -3.26144,-1.40815 0,0 -3.31709,2.15861 -3.31709,2.15861 z" />
  </g>
</svg>
