<?xml version="1.0" encoding="UTF-8" standalone="no"?>
<svg
   xmlns:dc="http://purl.org/dc/elements/1.1/"
   xmlns:cc="http://creativecommons.org/ns#"
   xmlns:rdf="http://www.w3.org/1999/02/22-rdf-syntax-ns#"
   xmlns:svg="http://www.w3.org/2000/svg"
   xmlns="http://www.w3.org/2000/svg"
   xmlns:sodipodi="http://sodipodi.sourceforge.net/DTD/sodipodi-0.dtd"
   xmlns:inkscape="http://www.inkscape.org/namespaces/inkscape"
   width="144.59105mm"
   height="41.955879mm"
   viewBox="0 0 144.59105 41.955879"
   version="1.1"
   id="svg8"
   sodipodi:docname="logo.svg"
   inkscape:version="1.0.1 (3bc2e813f5, 2020-09-07)">
  <defs
     id="defs2" />
  <sodipodi:namedview
     id="base"
     pagecolor="#ffffff"
     bordercolor="#666666"
     borderopacity="1.0"
     inkscape:pageopacity="0.0"
     inkscape:pageshadow="2"
     inkscape:zoom="1.4"
     inkscape:cx="165.63596"
     inkscape:cy="14.033408"
     inkscape:document-units="mm"
     inkscape:current-layer="layer1"
     inkscape:document-rotation="0"
     showgrid="false"
     inkscape:window-width="1360"
     inkscape:window-height="731"
     inkscape:window-x="0"
     inkscape:window-y="0"
     inkscape:window-maximized="1" />
  <metadata
     id="metadata5">
    <rdf:RDF>
      <cc:Work
         rdf:about="">
        <dc:format>image/svg+xml</dc:format>
        <dc:type
           rdf:resource="http://purl.org/dc/dcmitype/StillImage" />
      </cc:Work>
    </rdf:RDF>
  </metadata>
  <g
     inkscape:label="Layer 1"
     inkscape:groupmode="layer"
     id="layer1"
     transform="translate(-32.205444,-80.160759)">
    <rect
       style="fill:#808080;stroke-width:0.264583"
       id="rect12"
       width="137.94434"
       height="0.34331954"
       x="37.289608"
       y="85.609978" />
    <rect
       style="fill:#808080;stroke-width:0.264583"
       id="rect12-3"
       width="137.94434"
       height="0.34331954"
       x="33.37093"
       y="92.519333" />
    <rect
       style="fill:#808080;stroke-width:0.264583"
       id="rect12-6"
       width="137.94434"
       height="0.34331954"
       x="38.852165"
       y="92.518997" />
    <rect
       style="fill:#808080;stroke-width:0.264583"
       id="rect12-3-7"
       width="137.94434"
       height="0.34331954"
       x="35.052971"
       y="99.364563" />
    <rect
       style="fill:#808080;stroke-width:0.112351"
       id="rect12-5"
       width="24.873228"
       height="0.34331885"
       x="-108.14014"
       y="50.886002"
       transform="matrix(0.01126662,-0.99993653,0.99999993,3.662913e-4,0,0)" />
    <rect
       style="fill:#808080;stroke-width:0.112351"
       id="rect12-5-3"
       width="24.873228"
       height="0.34331885"
       x="-108.6581"
       y="56.555901"
       transform="matrix(0.01126662,-0.99993653,0.99999993,3.6629181e-4,0,0)" />
    <rect
       style="fill:#808080;stroke-width:0.112351"
       id="rect12-5-5"
       width="24.873228"
       height="0.34331885"
       x="-108.6562"
       y="62.190853"
       transform="matrix(0.01126662,-0.99993653,0.99999993,3.6629181e-4,0,0)" />
    <rect
       style="fill:#808080;stroke-width:0.112351"
       id="rect12-5-3-6"
       width="24.873228"
       height="0.34331885"
       x="-109.17418"
       y="67.860764"
       transform="matrix(0.01126662,-0.99993653,0.99999993,3.6629181e-4,0,0)" />
    <rect
       style="fill:#808080;stroke-width:0.112351"
       id="rect12-5-2"
       width="24.873228"
       height="0.34331885"
       x="-108.47356"
       y="73.371208"
       transform="matrix(0.01126662,-0.99993653,0.99999993,3.6629181e-4,0,0)" />
    <rect
       style="fill:#808080;stroke-width:0.112351"
       id="rect12-5-3-9"
       width="24.873228"
       height="0.34331885"
       x="-108.99155"
       y="79.041107"
       transform="matrix(0.01126662,-0.99993653,0.99999993,3.6629181e-4,0,0)" />
    <rect
       style="fill:#808080;stroke-width:0.112351"
       id="rect12-5-1"
       width="24.873228"
       height="0.34331885"
       x="-108.82851"
       y="84.705009"
       transform="matrix(0.01126662,-0.99993653,0.99999993,3.6629181e-4,0,0)" />
    <rect
       style="fill:#808080;stroke-width:0.112351"
       id="rect12-5-3-2"
       width="24.873228"
       height="0.34331885"
       x="-109.34647"
       y="90.374908"
       transform="matrix(0.01126662,-0.99993653,0.99999993,3.6629181e-4,0,0)" />
    <rect
       style="fill:#808080;stroke-width:0.112351"
       id="rect12-5-7"
       width="24.873228"
       height="0.34331885"
       x="-108.29536"
       y="95.811562"
       transform="matrix(0.01126662,-0.99993653,0.99999993,3.6629181e-4,0,0)" />
    <rect
       style="fill:#808080;stroke-width:0.112351"
       id="rect12-5-3-0"
       width="24.873228"
       height="0.34331885"
       x="-108.81332"
       y="101.48148"
       transform="matrix(0.01126662,-0.99993653,0.99999993,3.6629181e-4,0,0)" />
    <rect
       style="fill:#808080;stroke-width:0.112351"
       id="rect12-5-9"
       width="24.873228"
       height="0.34331885"
       x="-108.32291"
       y="39.946995"
       transform="matrix(0.01126662,-0.99993653,0.99999993,3.6629181e-4,0,0)" />
    <rect
       style="fill:#808080;stroke-width:0.112351"
       id="rect12-5-3-3"
       width="24.873228"
       height="0.34331885"
       x="-108.84087"
       y="45.616894"
       transform="matrix(0.01126662,-0.99993653,0.99999993,3.6629181e-4,0,0)" />
    <rect
       style="fill:#808080;stroke-width:0.112351"
       id="rect12-5-6"
       width="24.873228"
       height="0.34331885"
       x="-107.3217"
       y="107.48454"
       transform="matrix(0.01126662,-0.99993653,0.99999993,3.6629181e-4,0,0)" />
    <rect
       style="fill:#808080;stroke-width:0.112351"
       id="rect12-5-3-06"
       width="24.873228"
       height="0.34331885"
       x="-107.83961"
       y="113.15444"
       transform="matrix(0.01126662,-0.99993653,0.99999993,3.6629181e-4,0,0)" />
    <rect
       style="fill:#808080;stroke-width:0.112351"
       id="rect12-5-26"
       width="24.873228"
       height="0.34331885"
       x="-107.75674"
       y="119.39714"
       transform="matrix(0.01126662,-0.99993653,0.99999993,3.6629181e-4,0,0)" />
    <rect
       style="fill:#808080;stroke-width:0.112351"
       id="rect12-5-3-1"
       width="24.873228"
       height="0.34331885"
       x="-108.2747"
       y="125.06703"
       transform="matrix(0.01126662,-0.99993653,0.99999993,3.6629181e-4,0,0)" />
    <rect
       style="fill:#808080;stroke-width:0.112351"
       id="rect12-5-8"
       width="24.873228"
       height="0.34331885"
       x="-107.69942"
       y="131.43323"
       transform="matrix(0.01126662,-0.99993653,0.99999993,3.6629181e-4,0,0)" />
    <rect
       style="fill:#808080;stroke-width:0.112351"
       id="rect12-5-3-7"
       width="24.873228"
       height="0.34331885"
       x="-108.21738"
       y="137.10313"
       transform="matrix(0.01126662,-0.99993653,0.99999993,3.6629181e-4,0,0)" />
    <rect
       style="fill:#808080;stroke-width:0.112351"
       id="rect12-5-92"
       width="24.873228"
       height="0.34331885"
       x="-108.89812"
       y="142.94099"
       transform="matrix(0.01126662,-0.99993653,0.99999993,3.6629181e-4,0,0)" />
    <rect
       style="fill:#808080;stroke-width:0.112351"
       id="rect12-5-3-02"
       width="24.873228"
       height="0.34331885"
       x="-109.41608"
       y="148.61089"
       transform="matrix(0.01126662,-0.99993653,0.99999993,3.6629181e-4,0,0)" />
    <rect
       style="fill:#808080;stroke-width:0.264583"
       id="rect12-3-7-3"
       width="137.94434"
       height="0.34331954"
       x="32.205444"
       y="105.54698" />
    <path
       style="fill:#ff0000;stroke-width:0.264583"
       id="path184"
       d="m 44.668238,87.459184 c 0.150352,1.362183 0.158798,2.735683 0.174255,4.104635 0.0071,1.413557 0.0097,2.827144 0.01236,4.240723 0.01159,1.481 5.29e-4,2.96206 -0.0013,4.443078 -0.0021,1.16758 -0.0085,2.33515 -0.02334,3.50263 -0.01156,0.58972 -0.02159,1.17945 -0.01566,1.76927 0.0145,0.82771 0.01969,1.65543 0.0127,2.48323 -0.0042,0.3321 -0.0088,0.66416 -0.01069,0.99628 0,0 2.471386,-1.25923 2.471386,-1.25923 v 0 c -0.0019,-0.32849 -0.0065,-0.65692 -0.01069,-0.98538 -0.0071,-0.83211 -0.0016,-1.66415 0.0127,-2.49617 0.0058,-0.58451 -0.0039,-1.16891 -0.01564,-1.75331 -0.01482,-1.15966 -0.02095,-2.31941 -0.02262,-3.479157 -0.0011,-1.48095 -0.01087,-2.961934 2.65e-4,-4.442862 0.0011,-1.412473 0.0019,-2.825031 -0.02739,-4.237281 -0.02503,-1.391989 -0.04786,-2.784065 -0.08191,-4.175861 0,0 -2.474529,1.289405 -2.474529,1.289405 z" />
    <path
       style="fill:#ff0000;stroke-width:0.264583"
       id="path186"
       d="m 46.00309,89.012489 c 0.390298,-0.206968 0.807736,-0.351382 1.236673,-0.452387 0.713907,-0.1582 1.038794,-0.05197 1.67513,0.317249 0.762381,0.483126 1.30496,1.157202 1.69286,1.96121 0.467699,1.026647 0.527894,2.158074 0.589045,3.267125 -0.0231,0.667946 0.168984,1.767322 -0.166799,2.376948 -0.05124,0.09302 -0.1324,0.166087 -0.198602,0.249132 -0.218125,0.165134 -0.352112,0.275164 -0.588189,0.41814 -0.101526,0.06149 -0.414939,0.230597 -0.31287,0.170016 3.484427,-2.068203 2.501627,-1.29752 1.484664,-1.019321 -0.792387,0.120838 -1.596263,0.143783 -2.394918,0.212177 -0.103415,0.0077 -0.20682,0.01556 -0.310248,0.02307 -0.03258,0.0024 -0.441005,0.02223 -0.44668,0.02635 -2.315922,1.681517 -3.141977,1.538949 -2.111608,1.682555 0.312372,0.01236 0.625187,0.0072 0.937734,0.006 0.353994,-0.01672 0.702553,0.0032 1.052756,0.05207 0.671978,0.116361 1.28887,0.427133 1.886939,0.741767 0.844685,0.460454 1.592609,1.06939 2.249681,1.76819 0.347874,0.36243 0.625835,0.76686 0.728707,1.26157 0.06075,0.44089 0.05813,0.88126 -0.04359,1.31445 -0.249766,0.63621 -0.770987,1.09031 -1.301123,1.49511 -0.861144,0.52844 -1.154707,0.70616 1.894039,-1.10107 0.06921,-0.041 -0.142312,0.0751 -0.214471,0.11072 -0.270619,0.13342 -0.548347,0.24861 -0.827652,0.36224 -0.455726,0.18637 -0.914222,0.36671 -1.377494,0.5335 -0.437679,0.13926 -0.887733,0.23347 -1.341639,0.30029 -0.343839,0.0467 -0.690806,0.058 -1.037291,0.0636 -0.05163,5.3e-4 -0.103256,0.001 -0.154884,0.001 0,0 -2.267323,1.64852 -2.267323,1.64852 v 0 c 0.05186,1.1e-4 0.103714,2.2e-4 0.155572,2.6e-4 0.356611,-0.001 0.713592,-0.008 1.068626,-0.045 0.462925,-0.0531 0.918339,-0.14343 1.370343,-0.25646 0.479652,-0.14305 0.940115,-0.34851 1.404122,-0.53464 1.384263,-0.52021 2.712173,-1.22463 3.895299,-2.11627 0.533583,-0.46294 1.050163,-0.97114 1.23584,-1.67648 0.07667,-0.47191 0.09213,-0.95652 0.003,-1.4285 -0.1437,-0.53404 -0.450217,-0.976577 -0.841293,-1.366001 -0.688586,-0.70357 -1.454486,-1.322075 -2.28855,-1.846855 -0.61391,-0.330766 -1.24292,-0.638625 -1.912051,-0.842381 -0.357773,-0.05016 -0.708441,-0.120351 -1.072545,-0.08682 -0.305633,7.93e-4 -0.611274,0.0021 -0.916902,-5.3e-4 -1.040247,0.0543 -0.112126,-0.01 -2.429399,1.651882 -0.02101,0.01505 0.04894,-0.01725 0.07432,-0.02212 0.0524,-0.01005 0.105513,-0.01606 0.158467,-0.0226 0.173596,-0.02146 0.393451,-0.04189 0.563028,-0.05865 0.802719,-0.06756 1.60401,-0.132741 2.408354,-0.176482 1.308555,-0.223298 1.842056,-0.816991 3.296079,-1.64837 0.324596,-0.185595 0.621545,-0.415666 0.855207,-0.709499 0.05445,-0.106495 0.122534,-0.207055 0.163333,-0.319487 0.264265,-0.728231 0.05105,-1.679728 0.07192,-2.433442 -0.06747,-1.146947 -0.120248,-2.318184 -0.604811,-3.38033 -0.412012,-0.852122 -0.977424,-1.564875 -1.77787,-2.089229 -0.660644,-0.445116 -0.955194,-0.637664 -1.747325,-0.524169 -0.439795,0.07743 -0.867484,0.205304 -1.275209,0.389226 0,0 -2.190353,1.752386 -2.190353,1.752386 z" />
    <path
       style="fill:#ff0000;stroke-width:0.264583"
       id="path192"
       d="m 64.691701,94.602455 c -0.61414,-0.109262 -1.23063,-0.169767 -1.853861,-0.187426 -0.437825,-0.02058 -0.841997,0.118423 -1.238893,0.284054 -1.258184,0.6007 -2.485139,1.281941 -3.542453,2.188679 -0.347848,0.438115 -0.683485,0.893053 -0.890308,1.415465 -0.195606,0.528963 -0.369837,1.066019 -0.487441,1.617946 -0.095,0.457877 -0.09615,0.925067 -0.09636,1.390277 0.0048,0.63378 -0.06388,1.25843 -0.0489,1.89275 0.01704,0.70009 0.233,1.34961 0.52737,1.97681 0.26266,0.56604 0.660649,1.02521 1.138642,1.41734 0.488103,0.33884 1.040972,0.56622 1.60741,0.73624 0.414959,0.12209 0.844957,0.14576 1.274408,0.1528 0.269608,5.3e-4 0.539216,5.3e-4 0.808823,5.3e-4 0,0 2.249289,-1.63511 2.249289,-1.63511 v 0 c -0.266962,10e-4 -0.533942,0.003 -0.800899,-2.7e-4 -0.413874,-0.005 -0.830876,-0.005 -1.23749,-0.0939 -0.545767,-0.13056 -1.074722,-0.33293 -1.54736,-0.63961 -0.459709,-0.35481 -0.837481,-0.76591 -1.080651,-1.30237 -0.273865,-0.59417 -0.481084,-1.20385 -0.48224,-1.86739 0.0029,-0.63405 0.07952,-1.26232 0.07094,-1.89663 0.01238,-0.448884 0.02833,-0.899983 0.124235,-1.340456 0.124415,-0.535173 0.293748,-1.060492 0.509021,-1.566196 0.241491,-0.478647 0.546714,-0.933974 0.942465,-1.299183 0.197969,-0.158711 0.396475,-0.313124 0.610229,-0.450438 0.06684,-0.04293 0.272399,-0.163573 0.203468,-0.124089 -2.122943,1.215945 -2.927292,1.726441 -2.040499,1.166931 0.369343,-0.189632 0.757386,-0.360158 1.176097,-0.393377 0.609817,-1.35e-4 1.224634,0.0034 1.815626,0.174763 0,0 2.289326,-1.618033 2.289326,-1.618033 z" />
    <path
       style="fill:#ff0000;stroke-width:0.264583"
       id="path194"
       d="m 63.479433,94.953705 c 0.02077,1.277877 -0.168674,2.542334 -0.303681,3.809206 -0.114384,1.143937 -0.181766,2.291619 -0.204398,3.440849 -0.0084,0.80244 -0.04717,1.60111 0.0342,2.40021 0.09186,0.61098 0.256038,1.20662 0.369705,1.81301 0.04811,0.60002 0.179367,1.16125 0.445395,1.70119 0.06658,0.10601 0.133159,0.21202 0.199739,0.31802 0,0 2.387809,-1.38721 2.387809,-1.38721 v 0 c -0.05924,-0.0989 -0.118475,-0.19786 -0.177713,-0.29679 -0.23921,-0.52221 -0.34518,-1.06952 -0.410596,-1.63874 -0.113414,-0.59845 -0.274418,-1.18742 -0.35854,-1.79149 -0.07538,-0.78267 -0.06628,-1.56858 -0.05182,-2.35424 0.0241,-1.135768 0.06069,-2.272285 0.180586,-3.402736 0.137991,-1.283462 0.27668,-2.5664 0.387609,-3.852188 0,0 -2.498296,1.240909 -2.498295,1.240909 z" />
    <path
       style="fill:#ff0000;stroke-width:0.264583"
       id="path196"
       d="m 71.644771,89.153597 c -0.135366,1.697762 -0.389834,3.383314 -0.589164,5.074248 -0.209907,1.653555 -0.274092,3.318097 -0.302381,4.982879 -0.05936,1.453626 -0.0093,2.901136 0.291028,4.326236 0.248269,0.9816 0.599207,1.92713 1.175856,2.76194 0.564814,0.76801 1.262661,1.41718 1.959676,2.06145 0.640887,0.64067 1.456748,0.93201 2.3177,1.13676 0.296315,0.068 0.597842,0.10294 0.899623,0.13424 0,0 2.262822,-1.61683 2.262822,-1.61683 v 0 c -0.301275,-0.0165 -0.602591,-0.036 -0.900234,-0.0891 -0.83449,-0.15932 -1.621046,-0.40156 -2.245688,-1.01114 -0.693896,-0.6179 -1.376497,-1.25247 -1.926775,-2.0066 -0.547981,-0.80569 -0.918946,-1.70165 -1.164452,-2.64508 -0.291431,-1.40526 -0.333304,-2.83013 -0.283168,-4.262502 0.03042,-1.648799 0.09099,-3.298238 0.271973,-4.938477 0.198363,-1.722419 0.453784,-3.436475 0.725845,-5.14871 0,0 -2.492661,1.240666 -2.492661,1.240666 z" />
    <path
       style="fill:#ff0000;stroke-width:0.264583"
       id="path198"
       d="m 68.068237,97.22628 c 0.855519,-0.02643 1.711603,-0.01495 2.567326,-0.0071 0.516562,0.0046 1.033145,0.0055 1.549723,0.0066 0.340249,-0.0046 0.680508,-0.007 1.020781,-0.0088 0,0 2.23108,-1.620975 2.23108,-1.620975 v 0 c -0.332155,-0.0019 -0.664295,-0.0042 -0.996421,-0.0088 -0.522681,0.0013 -1.045371,0.0021 -1.568034,0.0066 -0.849188,0.0076 -1.698789,0.0199 -2.547753,-0.0071 0,0 -2.256702,1.639592 -2.256702,1.639592 z" />
    <path
       style="fill:#ff0000;stroke-width:0.264583"
       id="path200"
       d="m 80.705742,89.893919 c 0.06639,1.544812 0.07386,3.090971 0.124775,4.636471 0.06239,1.801233 0.104672,3.602821 0.119674,5.405057 -0.04452,1.481923 0.09398,2.956773 0.353427,4.414023 0.129927,0.84757 0.465458,1.61633 0.849035,2.37358 0.267676,0.59328 0.517155,1.18341 0.958218,1.66896 0.535098,0.45149 1.172292,0.78375 1.829625,1.01979 0.510313,0.16505 1.051703,0.16939 1.569948,0.045 1.101084,-0.42042 2.140159,-1.03325 3.036683,-1.79731 0,0 -2.578055,1.03297 -2.578055,1.03297 v 0 c -1.273635,0.93351 2.987665,-1.70842 1.74398,-0.94631 -0.463312,0.20112 -0.988594,0.22392 -1.478917,0.10781 -0.633974,-0.18735 -1.237168,-0.49183 -1.756627,-0.90225 -0.442098,-0.45169 -0.644292,-1.04147 -0.921671,-1.59981 -0.375642,-0.72849 -0.720082,-1.46158 -0.854443,-2.28026 -0.278156,-1.4313 -0.424127,-2.88031 -0.393403,-4.340475 -0.02037,-1.803305 -0.03623,-3.607097 -0.126233,-5.408629 -0.05219,-1.566103 -0.07318,-3.133542 0.01714,-4.69896 0,0 -2.493169,1.270333 -2.493169,1.270333 z" />
    <path
       style="fill:#ff0000;stroke-width:0.264583"
       id="path202"
       d="m 77.213676,96.67356 c 0.989624,0.05231 1.979515,0.09948 2.969614,0.141918 0.61195,0.03011 1.225759,0.0041 1.83537,0.07108 0.460187,0.05224 0.918326,0.104228 1.37283,0.194649 0.340106,0.07953 0.173197,0.04004 0.500748,0.11838 0,0 2.289048,-1.585158 2.289048,-1.585158 v 0 c -0.330361,-0.07325 -0.162459,-0.03442 -0.503629,-0.116819 -0.455911,-0.117933 -0.916937,-0.17888 -1.385379,-0.22193 -0.62434,-0.08052 -1.250096,-0.05869 -1.878875,-0.06985 -0.978363,-0.0195 -1.958134,-0.04635 -2.931975,-0.14832 0,0 -2.267752,1.616051 -2.267752,1.61605 z" />
    <path
       style="fill:#ff0000;stroke-width:0.264583"
       id="path204"
       d="m 91.413027,83.651279 c -0.05627,1.517965 -0.08694,3.038803 -0.134353,4.557845 -0.07172,2.143599 -0.124949,4.287697 -0.163721,6.432127 -0.0889,1.39147 0.05532,2.772537 0.18298,4.155437 0.130257,1.106712 0.249026,2.214412 0.429062,3.314382 0.09343,0.80336 0.272434,1.57842 0.564147,2.33178 0.266978,0.63883 0.619882,1.23278 1.049639,1.7741 0.454274,0.48947 0.943444,0.94768 1.478415,1.34764 0.414687,0.30071 0.859063,0.55963 1.322057,0.77802 0.242184,0.10844 0.492535,0.19522 0.743977,0.27894 0,0 2.300221,-1.5676 2.300221,-1.5676 v 0 c -0.245795,-0.0708 -0.491088,-0.1439 -0.723257,-0.25338 -0.458139,-0.19103 -0.889873,-0.44795 -1.302504,-0.72244 -0.529061,-0.36726 -0.997411,-0.81521 -1.441344,-1.28039 -0.410499,-0.52121 -0.764723,-1.0798 -1.016122,-1.69673 -0.278646,-0.7348 -0.447064,-1.49219 -0.561655,-2.26968 -0.18012,-1.09027 -0.309716,-2.188193 -0.445852,-3.284642 -0.134025,-1.367965 -0.255415,-2.735263 -0.206547,-4.112149 -0.003,-2.130131 0.01125,-4.260776 0.09736,-6.389454 0.07274,-1.543379 0.131133,-3.09643 0.348165,-4.627028 0,0 -2.520667,1.233222 -2.520668,1.233222 z" />
    <path
       style="fill:#ff0000;stroke-width:0.264583"
       id="path206"
       d="m 102.69554,102.6061 c 1.2558,-0.0974 2.43616,-0.53569 3.56054,-1.0781 1.64147,-1.04143 3.51627,-1.794547 4.94077,-3.15174 0.48741,-0.586134 0.89164,-1.094235 0.75831,-1.885744 -0.15654,-0.49658 -0.51266,-0.859605 -0.91402,-1.170704 -0.39753,-0.311103 -0.86584,-0.4919 -1.32516,-0.687549 -0.54653,-0.27346 -1.12606,-0.449927 -1.72442,-0.563261 -0.57113,-0.104373 -1.13744,-0.06853 -1.69979,0.05992 -1.25192,0.431861 -2.4812,1.07066 -3.46806,1.95783 -0.11411,0.102584 -0.41866,0.428339 -0.52197,0.537294 -0.50013,0.590717 -0.93666,1.233014 -1.30985,1.910519 -0.38664,0.740217 -0.54746,1.558895 -0.67559,2.375875 -0.0438,0.56784 -0.12851,1.14322 -0.10489,1.71452 0.0153,0.37099 0.0673,0.57406 0.13572,0.93812 0.28053,0.92287 0.72461,1.77427 1.37669,2.48467 0.54619,0.48354 1.16988,0.87989 1.78844,1.26541 0.5954,0.38351 1.25741,0.61384 1.94108,0.779 0.58024,0.10773 1.16874,0.17428 1.75604,0.2319 0.65099,0.0676 1.30554,0.069 1.95916,0.0753 0.11287,0.001 0.22573,0.002 0.3386,0.003 0,0 2.23824,-1.62467 2.23824,-1.62467 v 0 c -0.11381,4e-5 -0.22762,9e-5 -0.34142,1.3e-4 -0.64702,-0.004 -1.29467,-0.0129 -1.94021,-0.0603 -0.58023,-0.0502 -1.15458,-0.13763 -1.73214,-0.20802 -0.67139,-0.12699 -1.31718,-0.3254 -1.89766,-0.69754 -0.61065,-0.35778 -1.19868,-0.76344 -1.7578,-1.19593 -0.63321,-0.6563 -1.07777,-1.45475 -1.3098,-2.33994 -0.14347,-0.8565 -0.1055,-1.716 0.0191,-2.574762 0.13109,-0.796589 0.32391,-1.584793 0.72805,-2.292307 0.38146,-0.656598 0.81565,-1.287029 1.3352,-1.842873 0.21897,-0.215347 0.30632,-0.314063 0.54832,-0.501836 0.0849,-0.06584 0.35836,-0.23613 0.26423,-0.184409 -3.89488,2.140069 -2.44074,1.323766 -1.56652,0.935477 0.5323,-0.167505 1.0615,-0.228621 1.61731,-0.145452 0.58911,0.0784 1.16373,0.219601 1.6964,0.492164 0.42998,0.209691 0.8879,0.364948 1.27694,0.650844 0.35575,0.245821 0.68058,0.546243 0.80282,0.975579 0.0553,0.651576 -0.40097,1.174639 -0.82203,1.622994 -0.35582,0.313608 -0.38313,0.354711 -0.77812,0.631961 -0.81271,0.57047 -3.38164,1.97158 0.48942,-0.213144 -1.07224,0.559444 -2.19961,1.035094 -3.41964,1.131954 0,0 -2.26232,1.64367 -2.26232,1.64367 z" />
    <path
       style="fill:#ff0000;stroke-width:0.264583"
       id="path208"
       d="m 127.93179,96.256696 c -0.69288,-0.37969 -1.35389,-0.813329 -2.02264,-1.233207 -0.6972,-0.456615 -1.42985,-0.843756 -2.22048,-1.10803 -0.49882,-0.182909 -0.98562,-0.328475 -1.51935,-0.298252 -1.53083,0.308055 -2.92024,1.36497 -4.20493,2.1126 -0.47825,0.305766 -0.84966,0.713613 -1.13964,1.196766 -0.22514,0.551725 -0.31218,1.168726 -0.28505,1.762692 0.0706,0.585136 0.37757,1.069866 0.76722,1.495175 0.60528,0.55632 1.33149,0.9521 2.0425,1.35413 0.75175,0.41966 1.50645,0.83469 2.22783,1.30535 0.49933,0.32799 0.93799,0.73347 1.37214,1.14082 0.50803,0.46237 0.95026,0.98739 1.30027,1.57798 0.23783,0.40372 0.30769,0.84702 0.33664,1.30559 0.0612,0.59227 -0.0728,1.15012 -0.28032,1.70012 -0.18058,0.51394 -0.41061,0.99779 -0.84523,1.33733 -0.0735,0.047 -0.14729,0.0936 -0.22053,0.14105 -0.16311,0.10561 -0.66178,0.40749 -0.49359,0.31017 3.8421,-2.22302 2.4404,-1.3567 1.54778,-0.95209 -0.55648,0.22605 -1.13196,0.40771 -1.71391,0.5557 -0.50393,0.11102 -1.02,0.143 -1.53429,0.16021 -0.4245,0.0258 -0.83489,0.0193 -1.24328,-0.10457 -0.41368,-0.13657 -0.80472,-0.30988 -1.16588,-0.55347 -0.31776,-0.22056 -0.58789,-0.48945 -0.80507,-0.80847 -0.0367,-0.0557 -0.0733,-0.11144 -0.11001,-0.16715 0,0 -2.41174,1.41004 -2.41174,1.41004 v 0 c 0.0371,0.0573 0.0741,0.11458 0.11123,0.17186 0.23463,0.34844 0.5187,0.64914 0.86118,0.89509 0.37465,0.26671 0.77276,0.47316 1.21259,0.61216 0.42399,0.1687 0.83874,0.23476 1.29583,0.19342 0.52868,-0.0144 1.05753,-0.047 1.58064,-0.12832 0.59674,-0.11757 1.17464,-0.31853 1.747,-0.5218 1.41446,-0.52849 2.71827,-1.36175 3.91965,-2.2709 0.37762,-0.41409 0.5967,-0.9226 0.77148,-1.45144 0.19208,-0.58978 0.31873,-1.18607 0.24932,-1.80993 -0.0358,-0.50283 -0.14273,-0.97965 -0.41261,-1.41463 -0.37121,-0.60494 -0.82587,-1.14764 -1.3355,-1.64196 -0.43829,-0.4296 -0.89685,-0.84061 -1.41135,-1.17832 -0.73087,-0.46919 -1.49534,-0.88095 -2.25144,-1.30748 -0.67903,-0.39599 -1.38767,-0.763438 -1.9673,-1.303183 -0.34993,-0.371403 -0.62859,-0.796176 -0.66855,-1.318993 0.003,-0.554394 0.0715,-1.128823 0.36034,-1.61322 0.31628,-0.439851 0.70526,-0.803949 1.17418,-1.080333 -4.19843,2.401959 -1.70318,0.836144 -0.60692,0.548531 0.56304,-0.106799 0.92652,0.0185 1.46183,0.197872 0.79083,0.218165 1.51998,0.580929 2.2071,1.028837 0.65822,0.417439 1.30494,0.852654 1.96382,1.268786 0,0 2.35904,-1.516531 2.35904,-1.516531 z" />
    <rect
       style="fill:#808080;stroke-width:0.112351"
       id="rect12-5-8-7"
       width="24.873228"
       height="0.34331885"
       x="-108.62504"
       y="154.70998"
       transform="matrix(0.01126662,-0.99993653,0.99999993,3.6629181e-4,0,0)" />
    <rect
       style="fill:#808080;stroke-width:0.112351"
       id="rect12-5-3-7-5"
       width="24.873228"
       height="0.34331885"
       x="-109.14301"
       y="160.37988"
       transform="matrix(0.01126662,-0.99993653,0.99999993,3.6629181e-4,0,0)" />
    <rect
       style="fill:#808080;stroke-width:0.112351"
       id="rect12-5-92-9"
       width="24.873228"
       height="0.34331885"
       x="-109.82375"
       y="166.21774"
       transform="matrix(0.01126662,-0.99993653,0.99999993,3.6629181e-4,0,0)" />
    <rect
       style="fill:#808080;stroke-width:0.112351"
       id="rect12-5-3-02-2"
       width="24.873228"
       height="0.34331885"
       x="-110.34171"
       y="171.88763"
       transform="matrix(0.01126662,-0.99993653,0.99999993,3.6629181e-4,0,0)" />
    <path
       style="fill:#ff0000;stroke-width:0.264583"
       id="path236"
       d="m 132.21147,81.402697 c 0.0337,2.337038 0.0135,4.674015 -0.018,7.010921 -0.0426,2.480831 -0.0323,4.962057 -0.0404,7.443137 -0.0172,1.709046 -0.0365,3.417953 -0.043,5.127075 0.0517,1.34102 0.11496,2.68138 0.14882,4.02304 0.0154,0.99231 0.0198,1.98482 0.0184,2.97725 -0.002,0.6413 -0.0227,1.28227 -0.0127,1.92355 0.001,0.11596 0.002,0.23191 0.003,0.34787 0,0 2.46262,-1.25462 2.46262,-1.25462 v 0 c 0.001,-0.11703 0.002,-0.23407 0.003,-0.3511 0.0106,-0.63735 -0.007,-1.27442 -0.0123,-1.91177 -0.006,-0.98965 -0.0125,-1.97933 -0.0516,-2.96838 -0.0436,-1.33647 -0.12487,-2.67123 -0.16141,-4.007893 -0.007,-1.694188 -0.028,-3.388148 -0.0446,-5.082267 -0.006,-2.47364 0.006,-4.947227 0.001,-7.420867 0.009,-2.366179 -0.004,-4.742863 0.25122,-7.097884 0,0 -2.50481,1.241938 -2.50481,1.241938 z" />
    <path
       style="fill:#ff0000;stroke-width:0.264583"
       id="path240"
       d="m 136.06176,98.631477 c 0.41177,-0.616868 0.83038,-1.229553 1.24885,-1.842296 0.488,-0.545796 1.02329,-1.050714 1.61661,-1.480029 0.80219,-0.55807 2.21406,-1.50581 -1.61159,0.89363 -0.0846,0.05306 0.18722,-0.07353 0.28569,-0.09015 0.26642,-0.04498 0.37316,0.0024 0.63505,0.05509 0.8996,0.311891 1.4237,1.071378 1.86523,1.868342 0.49483,1.028213 0.61715,2.159256 0.69025,3.282236 0.0781,0.88717 -0.0655,1.7534 -0.26665,2.61226 -0.19278,0.70775 -0.41011,1.40762 -0.55249,2.12773 -0.0762,0.6589 -0.24457,1.30018 -0.43725,1.93298 0,0 2.50561,-1.18859 2.50561,-1.18859 v 0 c 0.17808,-0.64223 0.33032,-1.29188 0.42351,-1.95243 0.14585,-0.7139 0.36708,-1.40812 0.54155,-2.11523 0.19074,-0.87913 0.29834,-1.7687 0.20248,-2.66954 -0.0874,-1.159929 -0.23785,-2.322026 -0.7473,-3.383815 -0.46206,-0.864442 -1.01795,-1.672476 -1.94757,-2.078689 -0.11865,-0.03936 -0.23398,-0.09067 -0.35594,-0.118094 -1.46513,-0.329435 -2.64477,1.067279 -3.80109,1.848332 -0.57733,0.459716 -1.11964,0.971182 -1.56998,1.557816 -0.4225,0.626888 -0.85336,1.247595 -1.29173,1.863495 0,0 2.56676,-1.123045 2.56676,-1.123045 z" />
    <path
       style="fill:#ff0000;stroke-width:0.264583"
       id="path242"
       d="m 146.95172,96.819846 c -0.008,1.589828 -0.0551,3.179204 -0.10943,4.768024 -0.017,1.14618 -0.0678,2.28365 -0.22291,3.41957 -0.21268,1.29767 -0.52941,2.57825 -0.87477,3.84655 -0.19678,0.63217 -0.44511,1.2463 -0.67766,1.86573 0,0 2.44877,-1.13891 2.44877,-1.13891 v 0 c 0.23449,-0.62503 0.47659,-1.24806 0.66703,-1.88847 0.34877,-1.27865 0.6432,-2.57423 0.86755,-3.88061 0.16805,-1.13983 0.20833,-2.27877 0.1743,-3.43089 0.018,-1.61042 0.0565,-3.222288 0.2106,-4.82639 0,0 -2.48348,1.265396 -2.48348,1.265396 z" />
    <path
       style="fill:#ff0000;stroke-width:0.264583"
       id="path244"
       d="m 145.33928,89.662975 c 0.42981,-0.0016 0.86657,0.08925 1.19496,0.377957 0.24062,0.281419 0.0342,0.48282 -0.17319,0.697156 -0.15544,0.192837 -0.37394,0.294762 -0.58842,0.405495 0,0 2.59535,-1.001421 2.59535,-1.001421 v 0 c 0.21075,-0.145291 0.41424,-0.293687 0.56615,-0.504568 0.23565,-0.356587 0.2628,-0.718032 -0.0206,-1.065541 -0.3557,-0.348668 -0.81459,-0.497718 -1.3041,-0.558422 0,0 -2.27013,1.649344 -2.27013,1.649344 z" />
    <path
       style="fill:#ff0000;stroke-width:0.264583"
       id="path246"
       d="m 153.26376,96.019309 c 0.0627,1.551744 0.11455,3.104404 0.16519,4.656811 0.051,1.8521 0.17179,3.70111 0.22329,5.55327 0.0425,1.69308 0.0492,3.38682 0.0623,5.08031 -0.0235,1.93536 0.047,3.86824 0.22506,5.7953 0.11488,1.47213 0.28863,2.93779 0.46349,4.4036 0.0298,0.20268 0.0597,0.40536 0.0895,0.60804 0,0 2.39649,-1.2674 2.39649,-1.2674 v 0 c -0.0318,-0.19884 -0.0635,-0.39769 -0.0953,-0.59653 -0.19098,-1.45545 -0.35754,-2.91381 -0.5003,-4.3748 -0.18077,-1.91943 -0.28008,-3.84197 -0.21991,-5.77087 0.006,-1.69782 0.003,-3.39586 -0.056,-5.09291 -0.0733,-1.84767 -0.18618,-3.69326 -0.24561,-5.541371 -0.0503,-1.575324 -0.11305,-3.1535 -0.007,-4.728088 0,0 -2.50162,1.274638 -2.50162,1.274638 z" />
    <path
       style="fill:#ff0000;stroke-width:0.264583"
       id="path250"
       d="m 157.16192,97.582814 c 0.68903,-1.018402 1.54525,-1.922015 2.44638,-2.75499 0.80809,-0.567452 2.56809,-1.704985 -1.30967,0.712362 -0.0812,0.05064 0.17755,-0.07359 0.27051,-0.09647 0.22077,-0.05435 0.28711,-0.02838 0.51053,-0.0064 1.01657,0.320304 1.71866,1.270656 2.36506,2.067456 0.63299,0.830363 1.10512,1.764615 1.41318,2.759768 0.16736,0.65835 0.28094,1.34028 0.0862,2.00194 -0.3695,0.76239 -1.03177,1.33414 -1.68535,1.85161 -0.10561,0.0702 -0.42681,0.27386 -0.31684,0.21068 4.01125,-2.3045 2.35053,-1.19974 1.45956,-0.9961 -0.31778,0.0726 -0.36732,0.0618 -0.68849,0.0794 -0.64099,-0.0149 -1.28303,-0.069 -1.9147,-0.17949 -0.55474,-0.10508 -1.09606,-0.26094 -1.6054,-0.50493 -0.43464,-0.22352 -0.80042,-0.53988 -1.12409,-0.90145 -0.13024,-0.1634 -0.244,-0.33732 -0.35153,-0.51606 0,0 -2.41541,1.40245 -2.41541,1.40245 v 0 c 0.11847,0.19148 0.24194,0.37915 0.38263,0.55543 0.34301,0.38886 0.72742,0.7352 1.18425,0.98771 0.52338,0.27647 1.08032,0.44801 1.66262,0.55643 0.64135,0.14434 1.2927,0.19279 1.94864,0.22787 1.65452,0.0326 3.03747,-0.90677 4.32521,-1.94872 0.65771,-0.56883 1.35164,-1.18154 1.6391,-2.02715 0.13051,-0.71545 0.0218,-1.42659 -0.18116,-2.121124 -0.34094,-1.020318 -0.83854,-1.975099 -1.50143,-2.826046 -0.43242,-0.527534 -0.8716,-1.040127 -1.3581,-1.519433 -0.25386,-0.2501 -0.46076,-0.466784 -0.76825,-0.638689 -0.0879,-0.04914 -0.18647,-0.0761 -0.2797,-0.114152 -0.23457,-0.05908 -0.34047,-0.10578 -0.58546,-0.08877 -1.41216,0.09806 -2.57702,1.270714 -3.67621,2.106594 -0.89672,0.885822 -1.73208,1.831832 -2.51346,2.820916 0,0 2.58135,-1.100627 2.58135,-1.100627 z" />
    <path
       style="fill:#ff0000;stroke-width:0.264583"
       id="path252"
       d="m 174.75911,95.524763 c -0.37012,-0.335685 -0.75734,-0.649965 -1.1971,-0.889039 -0.53999,-0.250391 -1.15526,-0.223735 -1.7379,-0.240546 -1.49849,-0.03741 -3.05004,0.842835 -3.84475,2.103834 -0.42378,0.826643 -0.59779,1.748893 -0.72461,2.66106 -0.15185,0.897648 0.0973,1.723868 0.55267,2.489098 0.31993,0.49081 0.75607,0.87217 1.21189,1.23037 0.36661,0.29397 0.74308,0.58294 1.04561,0.94449 0.39336,0.47573 0.62271,1.02178 0.76555,1.61572 0.11794,0.67019 0.19922,1.35557 0.15755,2.03658 -0.0695,0.55587 -0.40802,0.71806 -0.86243,0.96063 4.09426,-2.51808 2.61246,-1.3114 1.71109,-1.09558 -0.28103,0.0673 -0.57041,0.0832 -0.85747,0.10254 -0.59378,0.0437 -1.183,-0.0594 -1.75892,-0.1938 -0.49879,-0.13209 -0.98856,-0.30189 -1.45955,-0.51257 -0.33031,-0.17149 -0.16703,-0.0788 -0.48945,-0.27893 0,0 -2.3344,1.50019 -2.3344,1.50019 v 0 c 0.33371,0.2216 0.1653,0.11585 0.50499,0.3176 0.48502,0.22118 0.97948,0.41614 1.49862,0.54617 0.58514,0.15586 1.19336,0.28534 1.80136,0.26613 1.8257,-0.0827 1.84555,-0.34913 3.97882,-1.65396 0.48269,-0.32773 0.72615,-0.60565 0.74784,-1.21309 -2.6e-4,-0.70081 -0.0786,-1.40093 -0.21518,-2.08813 -0.14835,-0.63779 -0.38354,-1.22492 -0.80039,-1.73934 -0.30585,-0.38565 -0.69145,-0.69573 -1.07694,-0.99964 -0.43555,-0.33449 -0.86758,-0.67208 -1.1806,-1.13259 -0.44864,-0.707566 -0.63114,-1.474823 -0.48104,-2.310989 0.13232,-0.881552 0.31015,-1.783347 0.79746,-2.545485 0.0803,-0.09273 0.15181,-0.193846 0.24086,-0.278198 0.0732,-0.06931 0.33178,-0.227582 0.24291,-0.180044 -3.92137,2.097596 -2.49279,1.107631 -1.41468,1.070785 0.54951,0.0063 1.12192,-0.01699 1.6505,0.151804 0.43341,0.194498 0.8122,0.484656 1.13896,0.828993 0,0 2.38873,-1.474063 2.38873,-1.474063 z" />
  </g>
</svg>
