<?xml version="1.0" encoding="UTF-8" standalone="no"?>
<svg
   xmlns:dc="http://purl.org/dc/elements/1.1/"
   xmlns:cc="http://creativecommons.org/ns#"
   xmlns:rdf="http://www.w3.org/1999/02/22-rdf-syntax-ns#"
   xmlns:svg="http://www.w3.org/2000/svg"
   xmlns="http://www.w3.org/2000/svg"
   xmlns:sodipodi="http://sodipodi.sourceforge.net/DTD/sodipodi-0.dtd"
   xmlns:inkscape="http://www.inkscape.org/namespaces/inkscape"
   width="147.23701mm"
   height="30.708208mm"
   viewBox="0 0 147.23701 30.708208"
   version="1.1"
   id="svg8"
   sodipodi:docname="footer.svg"
   inkscape:version="1.0.1 (3bc2e813f5, 2020-09-07)">
  <defs
     id="defs2" />
  <sodipodi:namedview
     id="base"
     pagecolor="#ffffff"
     bordercolor="#666666"
     borderopacity="1.0"
     inkscape:pageopacity="0.0"
     inkscape:pageshadow="2"
     inkscape:zoom="0.98994949"
     inkscape:cx="230.68249"
     inkscape:cy="-34.454257"
     inkscape:document-units="mm"
     inkscape:current-layer="layer1"
     inkscape:document-rotation="0"
     showgrid="false"
     inkscape:window-width="1360"
     inkscape:window-height="731"
     inkscape:window-x="0"
     inkscape:window-y="0"
     inkscape:window-maximized="1" />
  <metadata
     id="metadata5">
    <rdf:RDF>
      <cc:Work
         rdf:about="">
        <dc:format>image/svg+xml</dc:format>
        <dc:type
           rdf:resource="http://purl.org/dc/dcmitype/StillImage" />
        <dc:title></dc:title>
      </cc:Work>
    </rdf:RDF>
  </metadata>
  <g
     inkscape:label="Layer 1"
     inkscape:groupmode="layer"
     id="layer1"
     transform="translate(-30.70163,-82.482611)">
    <rect
       style="fill:#808080;stroke-width:0.264583"
       id="rect12"
       width="137.94434"
       height="0.34331954"
       x="37.289608"
       y="85.609978" />
    <rect
       style="fill:#808080;stroke-width:0.264583"
       id="rect12-3"
       width="137.94434"
       height="0.34331954"
       x="33.37093"
       y="92.519333" />
    <rect
       style="fill:#808080;stroke-width:0.264583"
       id="rect12-6"
       width="137.94434"
       height="0.34331954"
       x="38.852165"
       y="92.518997" />
    <rect
       style="fill:#808080;stroke-width:0.264583"
       id="rect12-3-7"
       width="137.94434"
       height="0.34331954"
       x="35.052971"
       y="99.364563" />
    <rect
       style="fill:#808080;stroke-width:0.112351"
       id="rect12-5"
       width="24.873228"
       height="0.34331885"
       x="-108.14014"
       y="50.886002"
       transform="matrix(0.01126662,-0.99993653,0.99999993,3.662913e-4,0,0)" />
    <rect
       style="fill:#808080;stroke-width:0.112351"
       id="rect12-5-3"
       width="24.873228"
       height="0.34331885"
       x="-108.6581"
       y="56.555901"
       transform="matrix(0.01126662,-0.99993653,0.99999993,3.6629181e-4,0,0)" />
    <rect
       style="fill:#808080;stroke-width:0.112351"
       id="rect12-5-5"
       width="24.873228"
       height="0.34331885"
       x="-108.6562"
       y="62.190853"
       transform="matrix(0.01126662,-0.99993653,0.99999993,3.6629181e-4,0,0)" />
    <rect
       style="fill:#808080;stroke-width:0.112351"
       id="rect12-5-3-6"
       width="24.873228"
       height="0.34331885"
       x="-109.17418"
       y="67.860764"
       transform="matrix(0.01126662,-0.99993653,0.99999993,3.6629181e-4,0,0)" />
    <rect
       style="fill:#808080;stroke-width:0.112351"
       id="rect12-5-2"
       width="24.873228"
       height="0.34331885"
       x="-108.47356"
       y="73.371208"
       transform="matrix(0.01126662,-0.99993653,0.99999993,3.6629181e-4,0,0)" />
    <rect
       style="fill:#808080;stroke-width:0.112351"
       id="rect12-5-3-9"
       width="24.873228"
       height="0.34331885"
       x="-108.99155"
       y="79.041107"
       transform="matrix(0.01126662,-0.99993653,0.99999993,3.6629181e-4,0,0)" />
    <rect
       style="fill:#808080;stroke-width:0.112351"
       id="rect12-5-1"
       width="24.873228"
       height="0.34331885"
       x="-108.82851"
       y="84.705009"
       transform="matrix(0.01126662,-0.99993653,0.99999993,3.6629181e-4,0,0)" />
    <rect
       style="fill:#808080;stroke-width:0.112351"
       id="rect12-5-3-2"
       width="24.873228"
       height="0.34331885"
       x="-109.34647"
       y="90.374908"
       transform="matrix(0.01126662,-0.99993653,0.99999993,3.6629181e-4,0,0)" />
    <rect
       style="fill:#808080;stroke-width:0.112351"
       id="rect12-5-7"
       width="24.873228"
       height="0.34331885"
       x="-108.29536"
       y="95.811562"
       transform="matrix(0.01126662,-0.99993653,0.99999993,3.6629181e-4,0,0)" />
    <rect
       style="fill:#808080;stroke-width:0.112351"
       id="rect12-5-3-0"
       width="24.873228"
       height="0.34331885"
       x="-108.81332"
       y="101.48148"
       transform="matrix(0.01126662,-0.99993653,0.99999993,3.6629181e-4,0,0)" />
    <rect
       style="fill:#808080;stroke-width:0.112351"
       id="rect12-5-9"
       width="24.873228"
       height="0.34331885"
       x="-108.32291"
       y="39.946995"
       transform="matrix(0.01126662,-0.99993653,0.99999993,3.6629181e-4,0,0)" />
    <rect
       style="fill:#808080;stroke-width:0.112351"
       id="rect12-5-3-3"
       width="24.873228"
       height="0.34331885"
       x="-108.84087"
       y="45.616894"
       transform="matrix(0.01126662,-0.99993653,0.99999993,3.6629181e-4,0,0)" />
    <rect
       style="fill:#808080;stroke-width:0.112351"
       id="rect12-5-6"
       width="24.873228"
       height="0.34331885"
       x="-107.3217"
       y="107.48454"
       transform="matrix(0.01126662,-0.99993653,0.99999993,3.6629181e-4,0,0)" />
    <rect
       style="fill:#808080;stroke-width:0.112351"
       id="rect12-5-3-06"
       width="24.873228"
       height="0.34331885"
       x="-107.83961"
       y="113.15444"
       transform="matrix(0.01126662,-0.99993653,0.99999993,3.6629181e-4,0,0)" />
    <rect
       style="fill:#808080;stroke-width:0.112351"
       id="rect12-5-26"
       width="24.873228"
       height="0.34331885"
       x="-107.75674"
       y="119.39714"
       transform="matrix(0.01126662,-0.99993653,0.99999993,3.6629181e-4,0,0)" />
    <rect
       style="fill:#808080;stroke-width:0.112351"
       id="rect12-5-3-1"
       width="24.873228"
       height="0.34331885"
       x="-108.2747"
       y="125.06703"
       transform="matrix(0.01126662,-0.99993653,0.99999993,3.6629181e-4,0,0)" />
    <rect
       style="fill:#808080;stroke-width:0.112351"
       id="rect12-5-8"
       width="24.873228"
       height="0.34331885"
       x="-107.69942"
       y="131.43323"
       transform="matrix(0.01126662,-0.99993653,0.99999993,3.6629181e-4,0,0)" />
    <rect
       style="fill:#808080;stroke-width:0.112351"
       id="rect12-5-3-7"
       width="24.873228"
       height="0.34331885"
       x="-108.21738"
       y="137.10313"
       transform="matrix(0.01126662,-0.99993653,0.99999993,3.6629181e-4,0,0)" />
    <rect
       style="fill:#808080;stroke-width:0.112351"
       id="rect12-5-92"
       width="24.873228"
       height="0.34331885"
       x="-108.89812"
       y="142.94099"
       transform="matrix(0.01126662,-0.99993653,0.99999993,3.6629181e-4,0,0)" />
    <rect
       style="fill:#808080;stroke-width:0.112351"
       id="rect12-5-3-02"
       width="24.873228"
       height="0.34331885"
       x="-109.41608"
       y="148.61089"
       transform="matrix(0.01126662,-0.99993653,0.99999993,3.6629181e-4,0,0)" />
    <rect
       style="fill:#808080;stroke-width:0.264583"
       id="rect12-3-7-3"
       width="137.94434"
       height="0.34331954"
       x="32.205444"
       y="105.54698" />
    <rect
       style="fill:#808080;stroke-width:0.112351"
       id="rect12-5-3-7-4"
       width="24.873228"
       height="0.34331885"
       x="-108.2435"
       y="154.70424"
       transform="matrix(0.01126662,-0.99993653,0.99999993,3.6629181e-4,0,0)" />
    <rect
       style="fill:#808080;stroke-width:0.112351"
       id="rect12-5-92-7"
       width="24.873228"
       height="0.34331885"
       x="-108.92419"
       y="160.5421"
       transform="matrix(0.01126662,-0.99993653,0.99999993,3.6629181e-4,0,0)" />
    <rect
       style="fill:#808080;stroke-width:0.112351"
       id="rect12-5-3-02-8"
       width="24.873228"
       height="0.34331885"
       x="-109.44214"
       y="166.21199"
       transform="matrix(0.01126662,-0.99993653,0.99999993,3.6629181e-4,0,0)" />
    <path
       style="fill:#ff0000;stroke-width:0.264583"
       id="path1038"
       d="m 37.454421,97.437148 c 0.853369,1.436989 1.243111,3.081062 1.581563,4.700732 0.203325,1.27936 0.412488,2.56019 0.546307,3.84928 0.06542,0.67702 0.07908,1.3574 0.08408,2.03708 -0.03648,0.51139 0.02405,0.92486 0.408691,1.27674 0.406797,0.24499 0.883367,0.3507 1.332892,0.49543 1.237834,0.46186 2.581396,0.39946 3.881728,0.43418 1.884384,0.0362 3.768905,0.0644 5.653397,0.0942 0.966814,0.032 1.933186,0.007 2.899852,-0.0133 2.006457,-0.0331 4.013237,-0.0212 6.019744,-0.001 1.219454,0.0296 2.439014,0.0102 3.658563,0.003 0.831803,-0.0551 1.689862,0.10498 2.515383,-0.0579 0.509019,-0.10042 0.691944,-0.21162 1.160839,-0.41825 1.668751,-1.046 3.791836,-1.89573 5.234479,-3.38531 0.115086,-0.11883 1.009846,-1.1542 1.088597,-1.24499 0.943213,-1.01794 1.77365,-2.12742 2.549882,-3.27575 0.575564,-0.96931 1.123757,-1.954817 1.69968,-2.92389 0.688089,-1.148114 1.501304,-2.216473 2.303428,-3.286398 0.617075,-0.821232 1.345245,-1.602001 1.639092,-2.605479 0.127777,-0.582773 -0.124333,-0.978111 -0.66238,-1.179509 -0.475398,-0.108742 -0.968049,-0.08926 -1.45257,-0.08761 -0.631224,-0.0078 -1.258999,0.02 -1.886683,0.08576 -1.44409,0.125478 -2.874655,0.363416 -4.312737,0.540832 -1.451536,0.165415 -2.890668,0.408771 -4.344313,0.559985 -1.064503,0.136118 -2.143691,0.09247 -3.2053,0.24493 -2.251168,0.457076 -4.045307,1.894843 -5.385768,3.625747 -0.331912,0.408705 -0.635043,0.882978 -1.063617,1.203854 -0.121264,0.09079 -0.524598,0.303226 -0.394536,0.225558 3.007153,-1.795815 3.994224,-2.179887 2.518746,-1.570855 -0.770962,0.325948 -1.604849,0.310046 -2.424962,0.293732 -0.614175,-0.0034 -1.191176,-0.207952 -1.777278,-0.361786 -0.584478,-0.104558 -1.160349,-0.238157 -1.733124,-0.394922 -0.8847,-0.301109 -1.803884,-0.427035 -2.72973,-0.513908 -0.895361,-0.08386 -1.795523,-0.06007 -2.693487,-0.06094 -0.780066,-0.01672 -1.554184,-0.120357 -2.33207,-0.171643 -0.64708,-0.03545 -1.295421,-0.04177 -1.943314,-0.04985 -0.757256,-0.03091 -1.508474,0.03674 -2.257486,0.141468 -0.681778,0.111241 -1.360895,0.258971 -2.054082,0.266321 -0.0759,-0.0092 -0.151799,-0.01831 -0.2277,-0.02746 0,0 -3.241863,2.274578 -3.241863,2.274578 v 0 c 0.08207,0.01714 0.164147,0.03431 0.246224,0.05146 0.717931,0.124198 1.444702,-0.11381 2.152176,-0.219458 0.723244,-0.125265 1.449282,-0.196713 2.183956,-0.165002 0.646665,-0.0024 1.293542,-0.0016 1.939753,0.02617 0.794165,0.04025 1.585089,0.122566 2.379093,0.165558 0.887037,2.64e-4 1.774619,0.0059 2.660854,0.04645 0.906635,0.05946 1.812081,0.152985 2.677459,0.448916 0.563941,0.184838 1.128395,0.369094 1.721382,0.429332 0.617386,0.135427 1.20692,0.379756 1.843818,0.418248 0.842512,0.02066 1.718251,0.08947 2.528853,-0.179573 2.516502,-0.912495 4.150767,-1.840894 5.598591,-3.801769 0.321177,-0.377616 0.405289,-0.499152 0.760857,-0.832101 0.109381,-0.102423 0.223104,-0.200562 0.342005,-0.291764 0.102622,-0.07872 0.435047,-0.279162 0.321522,-0.217194 -3.388995,1.849853 -4.165198,2.095365 -2.749605,1.608264 1.06408,-0.25211 2.166921,-0.158578 3.246524,-0.315849 1.44833,-0.154469 2.889446,-0.353978 4.333381,-0.541065 1.421354,-0.188507 2.838127,-0.436385 4.270374,-0.523229 0.610683,-0.05683 1.215787,-0.107971 1.830287,-0.08807 0.461794,-0.0069 0.924415,-0.01775 1.385742,0.0096 0.451724,0.04499 0.484325,0.130809 0.36584,0.597945 -0.368433,0.920588 -1.046687,1.667785 -1.62043,2.464138 -0.804416,1.087774 -1.633001,2.162236 -2.311855,3.335518 -0.568047,0.97136 -1.118484,1.95343 -1.719916,2.90479 -0.769634,1.11865 -1.57429,2.21056 -2.504763,3.20333 -0.433605,0.47997 -0.690041,0.78527 -1.156952,1.22244 -1.055944,0.9887 -4.037279,2.69587 1.400927,-0.50318 -0.346663,0.18496 -0.69809,0.3954 -1.078844,0.50811 -0.810429,0.2399 -1.686872,0.0651 -2.513944,0.12453 -1.222211,-0.007 -2.444411,-0.0266 -3.666535,0.003 -2.006793,0.02 -4.013858,0.0332 -6.020615,10e-4 -0.956902,-0.0201 -1.913217,-0.0392 -2.87021,-0.007 -1.908641,0.0232 -3.817953,0.0311 -5.726118,-0.0267 -1.229008,-0.0486 -2.514766,-0.006 -3.683465,-0.44384 -0.413433,-0.12875 -0.816904,-0.28684 -1.23674,-0.39128 -0.338359,-0.18925 -0.243281,-0.61897 -0.257558,-0.95242 -0.0094,-0.68813 -0.04017,-1.37547 -0.135433,-2.05801 -0.171214,-1.28602 -0.398446,-2.56524 -0.645482,-3.83849 -0.37556,-1.671034 -0.796489,-3.339465 -1.524834,-4.897607 0,0 -3.420261,2.002173 -3.420261,2.002173 z" />
    <path
       style="fill:#ff0000;stroke-width:0.264583"
       id="path1040"
       d="m 41.888087,87.530145 c 0.512535,1.053994 0.927028,2.148951 1.357849,3.237537 0.451017,1.250241 0.729089,2.548988 0.971071,3.852765 0.117552,0.760648 0.06596,0.390887 0.156676,1.109016 0,0 3.451225,-1.820317 3.451225,-1.820317 v 0 c -0.113739,-0.720262 -0.05188,-0.349075 -0.186854,-1.113351 -0.256625,-1.325639 -0.553069,-2.642862 -1.004967,-3.918061 -0.430167,-1.085524 -0.876443,-2.166342 -1.27028,-3.264929 0,0 -3.47472,1.91734 -3.47472,1.91734 z" />
    <path
       style="fill:#ff0000;stroke-width:0.264583"
       id="path1042"
       d="m 43.64959,88.33931 c 2.057212,-0.622446 4.094091,-1.321575 6.169231,-1.882397 1.242534,-0.325255 2.492526,-0.259469 3.739608,-0.02681 0.298098,0.118155 1.052856,0.153059 1.193077,0.546947 0.0463,0.130051 -0.04512,0.733811 -0.04801,0.759328 -0.208084,1.342448 -0.563057,2.651738 -0.969926,3.945294 -0.224938,0.889072 -0.511336,1.760988 -0.738523,2.649255 -0.132641,0.772871 -0.226907,1.550773 -0.343826,2.326716 0,0 3.529089,-1.733666 3.529089,-1.733666 v 0 c 0.109768,-0.763913 0.196675,-1.533091 0.358923,-2.287709 0.227767,-0.876964 0.492144,-1.744123 0.716815,-2.622034 0.376769,-1.322843 0.699595,-2.661185 0.937926,-4.016423 0.02888,-0.394303 0.104503,-0.685173 -0.05717,-1.060132 -0.214339,-0.497105 -0.942888,-0.599845 -1.379956,-0.741101 -1.300535,-0.24996 -2.60368,-0.393504 -3.910139,-0.06279 -2.042925,0.540571 -4.025194,1.293244 -6.080456,1.795442 0,0 -3.116667,2.410079 -3.116667,2.410079 z" />
    <path
       style="fill:#ff0000;stroke-width:0.264583"
       id="path1044"
       d="m 54.258241,92.130363 c 1.200264,-0.162221 2.369648,-0.489445 3.536828,-0.803738 1.265918,-0.390964 2.540352,-0.743395 3.837374,-1.014122 0.175903,-0.03938 0.351803,-0.07876 0.527704,-0.118133 0,0 3.099551,-2.365066 3.099551,-2.365066 v 0 c -0.1758,0.04473 -0.3516,0.08945 -0.527399,0.134178 -1.316972,0.263131 -2.61334,0.595487 -3.887946,1.022324 -1.123741,0.304702 -2.255354,0.629878 -3.413255,0.769461 0,0 -3.172857,2.375096 -3.172857,2.375096 z" />
    <path
       style="fill:#ff0000;stroke-width:0.264583"
       id="path1048"
       d="m 55.170077,88.034163 c 0.821569,-0.311899 1.697768,-0.414597 2.557095,-0.569926 1.086077,-0.214701 2.149097,-0.53386 3.2092,-0.850315 0.601459,-0.209918 1.224206,-0.335145 1.856118,-0.403347 0.242012,-0.02074 0.484529,-0.03162 0.726795,-0.04897 0,0 3.168494,-2.37499 3.168494,-2.37499 v 0 c -0.23916,0.05695 -0.468972,0.06958 -0.71541,0.0692 -0.654629,0.04917 -1.305674,0.144753 -1.931826,0.349713 -1.049666,0.371533 -2.135611,0.662234 -3.216487,0.924253 -0.843248,0.147685 -1.700577,0.21445 -2.521635,0.467135 0,0 -3.132344,2.437249 -3.132344,2.437249 z" />
    <path
       style="fill:#0000ff;stroke-width:0.264583"
       id="path1088"
       d="m 123.28005,94.04601 c 0.69,1.217964 1.26867,2.494976 1.89648,3.745351 0.75431,1.540182 1.67747,2.991019 2.67269,4.385039 1.24307,1.77252 2.86845,3.17991 4.57609,4.48457 1.29452,1.02402 2.66138,1.9214 4.20041,2.52315 1.48957,0.56661 3.03411,0.84475 4.61379,0.98549 1.74931,0.14561 3.50574,0.14486 5.25966,0.14215 1.53666,-0.0299 3.06984,0.0612 4.60205,0.16349 0.90388,0.0627 1.80909,0.11173 2.71516,0.12309 1.85089,0.081 4.44046,-0.42993 5.06443,-2.46541 0.15465,-0.92803 0.16033,-1.87428 0.16614,-2.81294 -0.0311,-1.15995 0.0116,-2.32233 -0.0628,-3.48036 -0.14728,-1.03123 -0.32527,-2.056432 -0.41733,-3.094636 -0.0572,-0.716815 -0.0633,-1.4361 -0.0612,-2.154748 -0.0178,-0.857457 -0.0164,-1.714966 -0.007,-2.572502 0.0511,-0.659773 -0.0687,-1.309076 -0.1428,-1.9618 -0.0579,-0.986994 -0.26795,-1.315239 -1.14887,-1.786753 -0.84391,-0.373155 -1.75269,-0.510172 -2.66405,-0.586454 -0.68704,-0.0813 -1.35496,0.05722 -2.01395,0.23414 -0.50249,0.08403 -1.14825,0.358855 -1.6587,0.164449 -0.0798,-0.03039 -0.13859,-0.09983 -0.20788,-0.149748 -0.34972,-0.705901 -0.28494,-1.522773 -0.21116,-2.28372 0.0783,-0.642286 0.13596,-1.286436 0.1654,-1.932773 0.0489,-0.655794 0.18755,-1.000779 -0.17648,-1.603311 -0.37287,-0.478783 -0.90661,-0.580729 -1.47746,-0.634678 -0.71086,-0.04394 -1.42349,-0.03115 -2.13514,-0.02191 -0.91328,0.015 -1.82671,0.0072 -2.74003,0.0024 -0.67299,7.94e-4 -1.34594,-0.0034 -2.01892,1.64e-4 -2.57408,-0.03709 -1.87076,0.202147 -5.30344,2.171401 -0.45829,0.543409 -0.53614,1.318615 -0.65463,2.00107 -0.11563,0.778984 -0.13554,1.565199 -0.14717,2.350963 0.002,0.705284 -0.011,1.410547 -0.007,2.115818 -0.0191,0.328221 -0.0534,0.55772 -0.31699,0.770413 -0.0998,0.08052 -0.42376,0.288158 -0.31298,0.2236 3.42745,-1.997443 3.82499,-2.160868 2.3379,-1.46634 -0.88899,0.363633 -1.82727,0.579655 -2.77794,0.698104 -0.78784,0.05281 -1.57393,0.08685 -2.35979,0.169624 -0.77276,0.08346 -1.54885,0.123775 -2.32561,0.141073 -0.70151,0.03935 -1.39166,-0.0075 -2.07378,-0.173072 -0.52197,-0.09989 -1.00434,-0.301302 -1.47976,-0.530979 0,0 -3.29143,2.173052 -3.29143,2.173052 v 0 c 0.49348,0.235895 0.97729,0.501745 1.52384,0.596167 0.70699,0.186801 1.4143,0.312373 2.15043,0.247428 0.78333,-0.01146 1.56681,-0.0222 2.34593,-0.114969 0.78314,-0.07896 1.56051,-0.167291 2.34919,-0.156792 0.98463,-0.101024 1.95278,-0.312711 2.88882,-0.638146 1.82433,-0.721008 1.03478,-0.377063 4.34741,-2.428677 0.44104,-0.27315 0.49057,-0.845322 0.50906,-1.302163 7.9e-4,-0.701018 -0.0177,-1.402074 -0.002,-2.103069 0.0142,-0.765458 0.0417,-1.534163 0.1735,-2.289924 0.12717,-0.628123 0.21996,-1.344062 0.80222,-1.715352 -1.04806,0.589984 -2.09666,1.179007 -3.14418,1.769954 -0.087,0.0491 0.16829,-0.111778 0.26274,-0.144423 0.41618,-0.143825 0.89274,0.0021 1.31926,-0.05004 0.67373,0.0036 1.34743,-7.94e-4 2.02117,-0.0011 0.91764,-0.0071 1.83533,-0.01892 2.753,-0.01053 0.69919,0.0038 1.39855,-0.0051 2.09757,0.01225 0.441,0.02106 0.92172,0.0039 1.26163,0.329822 0.27249,0.423084 0.0592,0.91803 0.0701,1.390401 -0.0306,0.638061 -0.0873,1.273905 -0.15078,1.909493 -0.0616,0.882359 -0.0536,1.809813 0.38072,2.605039 0.10419,0.10535 0.18791,0.235974 0.31258,0.316048 0.49179,0.315867 1.2447,0.05434 1.76954,0.0011 0.63706,-0.185563 1.27459,-0.4079 1.94942,-0.352012 0.87975,0.04058 1.76249,0.128008 2.59158,0.447638 0.8208,0.371358 0.85858,0.598561 0.92022,1.469721 0.0795,0.63465 0.1701,1.267735 0.14039,1.909802 0.007,0.861674 0.004,1.723215 -0.01,2.58481 0.0128,0.725577 0.0267,1.452448 0.10179,2.174797 0.1148,1.02652 0.31198,2.03938 0.4393,3.06397 0.0555,1.15653 0.0315,2.31438 0.025,3.47188 -0.008,0.88436 0.039,1.81558 -0.28094,2.6533 -1.03773,1.0487 -0.22565,0.19588 3.03359,-1.62817 0.0768,-0.043 -0.14286,0.10856 -0.22666,0.13556 -0.34501,0.11119 -0.73317,-0.002 -1.08436,0.0372 -0.91625,-0.0126 -1.83261,-0.0248 -2.7477,-0.0774 -1.55429,-0.0808 -3.10691,-0.20461 -4.66468,-0.14532 -1.74473,-0.0106 -3.49125,-0.009 -5.23317,-0.1212 -1.54401,-0.13256 -3.05989,-0.38116 -4.52028,-0.92347 -1.5341,-0.54891 -2.91111,-1.40462 -4.2091,-2.38507 -1.68818,-1.2689 -3.27424,-2.65166 -4.47629,-4.40909 -0.97342,-1.385121 -1.89225,-2.814469 -2.63399,-4.339167 -0.62173,-1.25807 -1.22293,-2.526896 -1.78756,-3.811665 0,0 -3.44505,1.965198 -3.44505,1.965198 z" />
    <path
       style="fill:#0000ff;stroke-width:0.264583"
       id="path1090"
       d="m 139.38211,86.157333 c -0.99546,-0.353189 -1.99112,-0.703373 -3.01433,-0.967737 -0.9859,-0.250182 -1.9979,-0.372438 -3.01006,-0.452181 -1.07889,-0.05939 -2.16067,-0.02188 -3.23932,-0.07914 -0.63319,-0.03576 -1.25502,-0.211087 -1.89026,-0.160964 -3.37835,1.777621 -3.82379,1.197983 -4.01439,3.926549 -0.0524,1.019405 -0.11542,1.468323 0.78402,2.08103 0.63037,0.310139 1.31817,0.484777 2.00496,0.618849 0.45857,0.08386 0.92504,0.09632 1.38985,0.09672 0.73115,0.0232 1.45668,-0.03677 2.18233,-0.117692 0.65916,-0.09027 1.30679,-0.244224 1.96466,-0.342805 0.43687,-0.06695 0.87934,-0.06548 1.31951,-0.08921 0.47217,-0.08601 0.93389,-0.188928 1.41566,-0.185446 0.49219,0.01669 0.23645,0.0075 0.76722,0.02794 0,0 3.18683,-2.293276 3.18683,-2.293276 v 0 c -0.51707,-0.02724 -0.26811,-0.01214 -0.74694,-0.04445 -0.49603,-0.03711 -0.97072,-0.03604 -1.45146,0.11956 -0.4295,0.109538 -0.88175,0.02681 -1.32022,0.09499 -0.66972,0.08272 -1.32695,0.231561 -1.98636,0.372388 -0.70913,0.07504 -1.41287,0.178724 -2.12839,0.132744 -0.45225,-0.0029 -0.90592,0.0057 -1.3563,-0.04326 -0.66166,-0.08805 -1.31,-0.243094 -1.93402,-0.483476 -0.15241,-0.08007 -0.3654,-0.164391 -0.47113,-0.317328 -0.26169,-0.378558 -0.10035,-0.959689 -0.11109,-1.375489 0.0429,-0.381836 0.0728,-0.783003 0.22151,-1.14305 0.45814,-1.109083 4.62358,-2.525604 -2.86763,1.360982 0.59714,-0.235879 1.24064,0.01836 1.86041,0.04295 1.07641,0.08942 2.15991,0.0044 3.23817,0.08019 0.99885,0.05697 2.00185,0.143557 2.97244,0.399817 1.00992,0.217474 1.99945,0.520702 2.94253,0.946589 0,0 3.2918,-2.205792 3.2918,-2.205792 z" />
    <path
       style="fill:#0000ff;stroke-width:0.264583"
       id="path1092"
       d="m 126.71987,88.567992 c 0.78246,0.07586 1.55973,0.172064 2.33313,0.313126 0.51118,0.08426 1.01088,0.221165 1.52223,0.304102 0.52796,0.06075 1.06045,0.06619 1.59129,0.07409 0.42329,-0.01746 0.83869,0.06695 1.255,0.129273 0,0 3.23087,-2.279279 3.23087,-2.279279 v 0 c -0.42738,-0.05581 -0.85075,-0.16495 -1.28006,-0.176091 -0.51987,0.0013 -1.04034,0.0013 -1.55923,-0.03511 -0.52038,-0.05468 -1.02229,-0.189703 -1.53744,-0.274082 -0.77064,-0.129447 -1.53876,-0.254177 -2.31563,-0.339399 0,0 -3.24016,2.28337 -3.24016,2.28337 z" />
    <path
       style="fill:#0000ff;stroke-width:0.264583"
       id="path1094"
       d="m 135.417,97.402694 c 0.0328,0.940853 0.0312,1.882674 0.0245,2.823986 -0.008,0.67696 -0.0149,1.35395 -0.0211,2.03094 0,0 3.52569,-1.79643 3.52569,-1.79643 v 0 c -0.006,-0.669838 -0.013,-1.339668 -0.0211,-2.009482 -0.007,-0.94965 -0.008,-1.899774 0.0245,-2.848985 0,0 -3.53264,1.799971 -3.53264,1.799971 z" />
    <path
       style="fill:#0000ff;stroke-width:0.264583"
       id="path1096"
       d="m 132.79396,102.50527 c 0.67074,0.12133 1.31723,0.35004 1.96173,0.56745 0.6063,0.20948 1.20281,0.44453 1.79923,0.68015 0.54743,0.24122 1.11811,0.38512 1.71027,0.45248 0,0 3.21641,-2.29248 3.21641,-2.29248 v 0 c -0.56697,-0.0383 -1.12244,-0.12593 -1.64908,-0.35301 -0.59669,-0.2498 -1.20236,-0.47673 -1.81162,-0.69357 -0.64894,-0.24066 -1.31944,-0.42153 -1.97594,-0.64021 0,0 -3.251,2.27919 -3.251,2.27919 z" />
    <path
       style="fill:#0000ff;stroke-width:0.264583"
       id="path1098"
       d="m 135.35923,93.704287 c 0.7047,0.450205 1.43236,0.868228 2.19939,1.202719 0.57224,0.176411 1.11159,0.438013 1.67717,0.63168 0.49198,0.120203 0.98575,0.237654 1.48119,0.344477 0.77744,0.126023 1.57069,0.108839 2.35614,0.120829 0.74407,0.03923 1.47888,0.006 2.21334,-0.115906 0.71589,-0.147211 1.36957,-0.480218 2.01465,-0.810775 1.44185,-0.937906 3.61936,-1.689632 4.79855,-3.193011 0.15379,-0.220014 0.21406,-0.469579 0.27228,-0.725958 0,0 -3.58069,1.694074 -3.58069,1.694074 v 0 c -0.0829,0.209704 -0.17219,0.405863 -0.33398,0.569603 -1.10303,1.126993 -3.92322,2.585064 1.91566,-0.819041 -0.6232,0.358272 -1.27187,0.686313 -1.95417,0.915572 -0.71658,0.162607 -1.4372,0.216087 -2.17187,0.184435 -0.76102,-0.0037 -1.52499,-0.0024 -2.28232,-0.08583 -0.4924,-0.08402 -0.9666,-0.23581 -1.46093,-0.306456 -0.57565,-0.157158 -1.09523,-0.450316 -1.67539,-0.592889 -0.75893,-0.280408 -1.48528,-0.665816 -2.13231,-1.152083 0,0 -3.33671,2.138563 -3.33671,2.138563 z" />
    <path
       style="fill:#d5e5ff;stroke-width:0.264583"
       id="path1108"
       d="m 30.70163,109.71726 c 1.473608,-0.47195 2.918627,-1.02573 4.387451,-1.51192 1.630307,-0.46596 3.240651,-0.99617 4.875009,-1.44822 1.069382,-0.31165 2.160722,-0.49824 3.27031,-0.57035 0.861097,-0.0395 1.723113,-0.0504 2.581548,0.0322 0.799743,0.12181 1.577425,0.3571 2.354149,0.57816 0.730443,0.23962 1.446897,0.52107 2.166985,0.79044 0.745704,0.29082 1.5099,0.52682 2.275345,0.75876 0.900078,0.28866 1.810059,0.53651 2.741337,0.69909 1.066403,0.19292 2.142054,0.32142 3.215727,0.46508 0.972659,0.1299 1.950175,0.21123 2.930488,0.24877 0.812515,0.0292 1.625685,0.0212 2.438562,0.0223 1.028605,0.0296 2.042985,-0.17011 3.041642,-0.39379 0.850807,-0.24208 1.71365,-0.42868 2.579865,-0.60408 0.552778,-0.14174 1.117451,-0.21382 1.682038,-0.28673 0.57822,-0.13628 1.168813,-0.20018 1.748033,-0.32929 0.758981,-0.17302 1.474089,-0.48619 2.183776,-0.79853 0.641297,-0.28875 1.277913,-0.58711 1.91911,-0.87631 0.684072,-0.28243 1.402797,-0.45587 2.133716,-0.55805 0.991367,-0.0858 1.977417,-0.21597 2.96949,-0.29393 0.960607,-0.062 1.923265,-0.0722 2.885499,-0.0782 1.033012,-0.0179 2.063578,0.0941 3.084329,0.24248 0.809787,0.0892 1.588096,0.32788 2.368363,0.54872 0.697973,0.16808 1.387742,0.36237 2.069592,0.58667 0.905531,0.25801 1.815824,0.50341 2.733775,0.7134 0.783418,0.13624 1.563934,0.29444 2.349878,0.41601 1.108263,0.18645 2.226059,0.30829 3.339653,0.45841 1.72392,0.21937 3.44347,0.46877 5.1649,0.70631 1.18484,0.18037 2.38051,0.25243 3.57721,0.28479 1.42164,0.007 2.84288,0.0362 4.25988,-0.0917 1.16574,-0.1019 2.3015,-0.38043 3.43459,-0.65737 0.81325,-0.22277 1.60817,-0.49762 2.42688,-0.70167 0.91187,-0.26243 1.83608,-0.47055 2.74402,-0.74682 0.76451,-0.21053 1.50765,-0.48777 2.26475,-0.72193 0.793,-0.26639 1.61993,-0.36938 2.44377,-0.48386 0.91356,-0.17723 1.84159,-0.23298 2.76947,-0.26852 0.81441,-0.0271 1.6293,-0.0247 2.44402,-0.0305 1.21848,-0.0519 2.40408,0.25571 3.58181,0.52343 1.45034,0.33679 2.9057,0.66022 4.37859,0.88218 1.02874,0.15857 2.05523,0.33969 3.06897,0.57681 0.77478,0.21197 1.56972,0.33775 2.35883,0.48404 0.71622,0.13445 1.44576,0.14657 2.16548,0.25141 0.83258,0.13415 1.66406,0.27287 2.50095,0.37769 0.75333,0.0791 1.51146,0.0976 2.26831,0.11145 0.90638,0.0416 1.78152,-0.24218 2.65341,-0.44958 0.71791,-0.13292 1.41662,-0.33379 2.10929,-0.56033 0.54205,-0.16554 1.10502,-0.23881 1.65617,-0.36843 0.77226,-0.17815 1.54061,-0.36949 2.30543,-0.5777 0.69118,-0.20994 1.38324,-0.41305 2.09519,-0.5388 0.42605,-0.0703 0.85795,-0.0847 1.28883,-0.0891 0.49958,-0.0215 0.98957,0.10187 1.47242,0.21503 0.71148,0.11209 1.38084,0.36646 2.0563,0.60368 0.63498,0.20669 1.27898,0.37227 1.94004,0.46688 0.67951,0.10021 1.35378,0.22781 2.0369,0.30251 0.58169,0.0673 1.14735,0.21516 1.73546,0.19976 0.34835,-0.0306 0.16959,-0.0128 0.5362,-0.0543 0,0 3.17328,-2.35499 3.17328,-2.35499 v 0 c -0.36246,0.0326 -0.18686,0.0125 -0.52695,0.0588 -0.6127,0.0819 -1.09943,-0.0104 -1.70197,-0.14114 -0.68484,-0.051 -1.36427,-0.14816 -2.03707,-0.28696 -0.64756,-0.0677 -1.27323,-0.2114 -1.89482,-0.40298 -0.6895,-0.21818 -1.35359,-0.52442 -2.07427,-0.63378 -0.49612,-0.11975 -0.99497,-0.28348 -1.50567,-0.30722 -0.44631,1.7e-4 -0.89365,-0.002 -1.33764,0.0513 -0.73108,0.10031 -1.44452,0.2855 -2.14352,0.52181 -0.76047,0.20364 -1.51574,0.42444 -2.28997,0.57027 -0.54715,0.15713 -1.1037,0.23579 -1.66021,0.34709 -0.70723,0.21257 -1.39239,0.50051 -2.12855,0.61063 -0.84519,0.19867 -1.69127,0.49327 -2.56517,0.50215 -0.7535,-5.3e-4 -1.50797,-0.005 -2.25932,-0.0687 -0.83421,-0.0815 -1.65924,-0.21201 -2.48154,-0.37149 -0.72088,-0.11623 -1.44452,-0.14834 -2.16896,-0.23874 -0.78734,-0.13023 -1.57434,-0.27414 -2.35025,-0.45919 -1.02791,-0.25807 -2.08172,-0.4103 -3.12634,-0.58436 -1.47837,-0.18781 -2.93752,-0.49517 -4.38913,-0.82902 -1.16866,-0.29494 -2.35089,-0.66375 -3.56733,-0.64583 -0.82035,-0.005 -1.64101,-0.003 -2.46098,0.0246 -0.92916,0.0353 -1.86643,0.0515 -2.78298,0.22059 -0.82888,0.14749 -1.67958,0.18121 -2.48558,0.45029 -0.76417,0.21873 -1.50797,0.49007 -2.26827,0.72013 -0.90281,0.28108 -1.81308,0.5095 -2.72456,0.75762 -0.82007,0.20834 -1.63311,0.42275 -2.43141,0.70762 -1.14082,0.283 -2.27347,0.61739 -3.4482,0.734 -1.3951,0.16883 -2.79477,0.1358 -4.19787,0.10732 -1.20263,-0.0199 -2.40543,-0.0673 -3.60003,-0.21727 -1.71969,-0.21037 -3.43237,-0.4722 -5.14818,-0.71088 -1.09236,-0.17133 -2.1928,-0.29354 -3.27819,-0.50398 -0.78857,-0.10007 -1.563961,-0.27708 -2.352282,-0.37905 -0.910667,-0.18675 -1.802937,-0.44814 -2.700809,-0.6869 -0.684397,-0.22403 -1.36217,-0.47445 -2.071073,-0.6116 -0.804352,-0.20473 -1.592424,-0.48873 -2.424666,-0.56544 -1.029472,-0.15203 -2.066851,-0.29951 -3.109354,-0.29693 -0.969052,0.004 -1.938777,0.006 -2.906466,0.0633 -0.993077,0.0563 -1.975078,0.20196 -2.966104,0.26933 -0.748699,0.0654 -1.469755,0.21285 -2.184053,0.45068 -0.654421,0.27 -1.287349,0.58639 -1.929524,0.88325 -0.706086,0.30298 -1.397773,0.65857 -2.145647,0.84892 -0.566399,0.16346 -1.14364,0.19774 -1.71554,0.33446 -0.555754,0.14389 -1.148908,0.11294 -1.702207,0.28726 -0.873196,0.21186 -1.765922,0.34656 -2.623018,0.62704 -0.960456,0.25379 -1.963357,0.45145 -2.959121,0.44839 -0.811144,0.002 -1.622322,5.3e-4 -2.433402,-0.0103 -0.97885,-0.0244 -1.957639,-0.0731 -2.929359,-0.20007 -1.068215,-0.14658 -2.140323,-0.26541 -3.200886,-0.4629 -0.919655,-0.13813 -1.815897,-0.37087 -2.696269,-0.67076 -0.759986,-0.2169 -1.519017,-0.44213 -2.248333,-0.74942 -0.738857,-0.25371 -1.468673,-0.52976 -2.200942,-0.80095 -0.793782,-0.21977 -1.57865,-0.47386 -2.387669,-0.634 -0.876361,-0.10578 -1.749941,-0.11454 -2.63276,-0.073 -1.149903,0.0475 -2.279002,0.20392 -3.382336,0.549 -1.631449,0.45541 -3.246194,0.9662 -4.876514,1.42564 -1.431777,0.47501 -2.838804,1.02384 -4.287543,1.44603 0,0 -3.136213,2.42393 -3.136213,2.42393 z" />
    <path
       style="fill:#d5e5ff;stroke-width:0.264583"
       id="path1110"
       d="m 35.662084,111.00536 c 0.635619,-1.05322 1.385443,-2.03237 2.280973,-2.87551 0.171706,-0.12695 0.340222,-0.25834 0.515122,-0.38085 0.186293,-0.1305 0.375211,-0.25744 0.568116,-0.37794 0.185346,-0.11578 0.754269,-0.44182 0.566153,-0.3306 -4.265356,2.52186 -3.261,1.72831 -1.541087,1.21625 1.083165,-0.30876 2.198177,-0.43052 3.319053,-0.48121 0.90969,-0.083 1.795592,0.12738 2.67994,0.30469 0.70688,0.17048 1.394241,0.42063 2.077315,0.66887 0.972791,0.3278 1.908048,0.75026 2.856453,1.13961 1.017685,0.3452 1.953029,0.87125 2.892718,1.3833 1.00965,0.50086 1.97866,1.082 3.024603,1.50572 0.800635,0.33653 1.644502,0.37874 2.499159,0.40547 1.019167,0.0418 2.033744,-0.0948 3.040912,-0.2327 0.927356,-0.11901 1.843669,-0.30634 2.770121,-0.43187 0.858843,-0.0762 1.711981,-0.19562 2.562704,-0.33485 0.8225,-0.13308 1.637982,-0.30808 2.453717,-0.47745 0.579069,-0.11404 1.146294,-0.27174 1.711245,-0.4406 0.633913,-0.22839 1.277104,-0.42795 1.917171,-0.63796 0.991518,-0.38027 2.005796,-0.69299 3.017642,-1.013 1.058704,-0.29715 2.143024,-0.49366 3.22875,-0.66129 1.367763,-0.20335 2.746216,-0.23999 4.125362,-0.18338 1.122511,0.007 2.194533,0.30318 3.243805,0.67115 0.927052,0.29755 1.827572,0.67465 2.771357,0.91788 0.792617,0.17491 1.586079,0.35352 2.386017,0.49197 1.126289,0.1815 2.252975,0.36356 3.3835,0.51662 1.162145,0.16442 2.322568,0.33908 3.479684,0.53587 1.142669,0.17998 2.305841,0.0707 3.455351,0.0243 1.21968,-0.0671 2.43112,-0.21357 3.64022,-0.38132 0.74797,-0.078 1.48169,-0.23907 2.20836,-0.42732 0.63637,-0.17891 1.26944,-0.27349 1.92954,-0.26855 0.57707,-0.0187 1.13626,0.0936 1.69778,0.20632 0.77882,0.13586 1.55888,0.24326 2.34657,0.31115 1.0559,0.0937 2.08877,0.34182 3.11796,0.5847 0.63345,0.15871 1.27868,0.25364 1.92943,0.29838 0.5312,0.0281 1.06328,0.0218 1.59488,0.0133 0.99431,0.0195 1.97602,-0.15745 2.94615,-0.35562 1.05594,-0.22776 2.08451,-0.5673 3.10292,-0.92369 0.8647,-0.31095 1.73897,-0.59749 2.62481,-0.84224 0.83095,-0.2141 1.64136,-0.49718 2.45901,-0.75584 0.79718,-0.2331 1.60447,-0.43797 2.41908,-0.60107 0.87906,-0.15357 1.77416,-0.16118 2.66378,-0.17359 1.21742,-0.004 2.43312,-0.0428 3.64603,0.0768 1.10027,0.15393 2.16672,0.4611 3.22462,0.78997 0.808,0.24636 1.61357,0.49628 2.42836,0.71974 1.27156,0.29309 2.4293,0.89012 3.61197,1.41699 0.84758,0.41054 1.72396,0.74634 2.63476,0.98413 0.8845,0.21254 1.79294,0.21714 2.69657,0.22724 1.17233,0.004 2.34371,0.0446 3.51039,-0.0851 0.88081,-0.10671 1.75001,-0.27145 2.59084,-0.55589 0.6688,-0.21514 1.32505,-0.4663 1.9754,-0.73152 1.73444,-0.75205 3.34528,-1.83013 4.96825,-2.75702 1.03441,-0.59076 -2.06169,1.19391 -3.09253,1.79087 7.41622,-4.27546 2.53328,-1.46159 0.56096,-0.32049 -0.13062,0.0756 0.2577,-0.15749 0.664,-0.36458 0.46685,-0.23794 0.42678,-0.2114 0.92197,-0.42786 0.94084,-0.42184 1.93813,-0.66898 2.95292,-0.82721 0.50837,-0.0754 1.0222,-0.0906 1.53504,-0.10291 0,0 3.17781,-2.31855 3.17781,-2.31855 v 0 c -0.52375,0.008 -1.04858,0.0142 -1.57017,0.0675 -1.03481,0.1428 -2.06486,0.35722 -3.03056,0.76696 -2.36178,0.90238 -9.33807,5.31665 -2.14285,1.0503 -1.21761,0.70069 -2.43657,1.39906 -3.65285,2.10207 -1.0242,0.59198 2.05245,-1.17695 3.07661,-1.769 0.10297,-0.0595 -0.20946,0.11281 -0.31299,0.17137 -0.4721,0.26704 -0.17125,0.11665 -0.65131,0.35415 -0.10308,0.051 -0.20703,0.10024 -0.31054,0.15037 -0.64913,0.25844 -1.28933,0.54345 -1.96059,0.74235 -0.83959,0.30652 -1.68901,0.55734 -2.58331,0.65332 -1.15213,0.17078 -2.30987,0.13815 -3.47234,0.12558 -0.87555,-0.0132 -1.7567,-0.0189 -2.62144,-0.17364 -0.90978,-0.19956 -1.78733,-0.51604 -2.63409,-0.9038 -1.20126,-0.50114 -2.35075,-1.13432 -3.61417,-1.47713 -0.80871,-0.23669 -1.61452,-0.48203 -2.42436,-0.71374 -1.08616,-0.32156 -2.17224,-0.64447 -3.29286,-0.82918 -1.21617,-0.15313 -2.43739,-0.13405 -3.66155,-0.12327 -0.89089,0.003 -1.78674,-0.0247 -2.67168,0.0978 -0.83337,0.13032 -1.6436,0.37123 -2.46281,0.56775 -0.80793,0.26415 -1.61505,0.53063 -2.4325,0.7626 -0.91308,0.22683 -1.80444,0.5355 -2.69047,0.84995 -0.99737,0.36463 -2.0105,0.68961 -3.04323,0.93861 -0.93951,0.22804 -1.90694,0.43338 -2.87741,0.41086 -0.52266,-0.006 -1.04527,-10e-4 -1.56791,-0.008 -0.64764,-0.0189 -1.2934,-0.0765 -1.92734,-0.21727 -1.04728,-0.22261 -2.08675,-0.49381 -3.15021,-0.62941 -0.76949,-0.0563 -1.52836,-0.15901 -2.28481,-0.30436 -0.58342,-0.10033 -1.15467,-0.27144 -1.75302,-0.24617 -0.35973,-0.0122 -0.74806,-0.0562 -1.10674,-0.0176 -0.13522,0.0145 -0.44504,0.11858 -0.57788,0.14655 -0.0976,0.0206 -0.19729,0.0299 -0.29594,0.0448 -0.73557,0.18404 -1.4609,0.42077 -2.22101,0.48899 -1.20799,0.18143 -2.41446,0.35259 -3.63494,0.42916 -1.12756,0.0372 -2.26653,0.1497 -3.38984,0.0219 -1.1682,-0.17365 -2.333632,-0.3627 -3.502368,-0.53285 -1.120936,-0.14291 -2.237298,-0.32731 -3.349672,-0.52457 -0.792851,-0.12487 -1.575282,-0.31337 -2.359716,-0.4809 -0.950121,-0.19024 -1.850348,-0.54618 -2.764933,-0.85847 -1.068512,-0.42915 -2.201248,-0.71858 -3.357697,-0.74139 -1.385128,-0.0635 -2.77218,-0.10145 -4.148519,0.1115 -1.084572,0.14271 -2.162354,0.33726 -3.227879,0.58484 -1.024813,0.30274 -2.036874,0.652 -3.041891,1.01548 -0.620622,0.22168 -1.260115,0.37056 -1.877417,0.60079 -0.543452,0.22681 -1.126826,0.35578 -1.698731,0.48951 -0.814094,0.20335 -1.645311,0.34892 -2.467097,0.51623 -0.839149,0.14434 -1.67972,0.2688 -2.529678,0.32766 -0.939141,0.11922 -1.86417,0.3182 -2.801102,0.45075 -0.990925,0.14192 -1.990047,0.28664 -2.992919,0.27745 -0.817681,-0.017 -1.6384,-0.0319 -2.421617,-0.29918 -1.055312,-0.37215 -2.015508,-0.94817 -3.01298,-1.4486 -0.945536,-0.52025 -1.875152,-1.08365 -2.900682,-1.43562 -0.95535,-0.36604 -1.886561,-0.79375 -2.84493,-1.15334 -0.692383,-0.27776 -1.404916,-0.5095 -2.117974,-0.72586 -0.910526,-0.16215 -1.819621,-0.42934 -2.752124,-0.36432 -1.145278,0.0493 -2.287651,0.11781 -3.398332,0.4305 -0.126995,0.0328 -1.139666,0.28452 -1.273199,0.35509 -1.858298,0.98211 -3.854863,1.97972 -5.48817,3.35948 -0.879528,0.91173 -1.640374,1.93401 -2.304534,3.01254 0,0 3.607565,-1.61906 3.607565,-1.61906 z" />
    <path
       style="fill:#d5e5ff;stroke-width:0.264583"
       id="path1112"
       d="m 38.038698,111.17708 c 0.938689,-0.32298 1.883632,-0.62714 2.851849,-0.84817 0.735872,-0.16411 1.425548,0.002 2.128983,0.2064 1.665197,0.29583 3.340978,0.53517 4.978016,0.96682 0.487966,0.14179 0.973442,0.29161 1.457825,0.44508 0,0 3.237608,-2.20339 3.237608,-2.20339 v 0 c -0.500337,-0.15935 -1.005639,-0.29712 -1.513094,-0.43241 -1.621162,-0.41525 -3.28087,-0.64685 -4.919516,-0.98249 -0.736569,-0.25205 -1.456468,-0.48136 -2.249864,-0.36662 -0.966848,0.18449 -1.894533,0.50464 -2.837648,0.77987 0,0 -3.134159,2.43491 -3.134159,2.43491 z" />
    <path
       style="fill:#d5e5ff;stroke-width:0.264583"
       id="path1114"
       d="m 56.376924,111.10615 c 0.83435,0.2427 1.659313,0.43121 2.525702,0.51356 1.396807,0.13906 2.797302,-0.006 4.165727,-0.29133 0.465489,-0.1135 0.927063,-0.24156 1.391208,-0.3603 0,0 3.115762,-2.37978 3.115762,-2.37978 v 0 c -0.478858,0.11152 -0.950253,0.24488 -1.420783,0.38803 -1.331177,0.34316 -2.716485,0.51269 -4.090694,0.39211 -0.830675,-0.0791 -1.628322,-0.22589 -2.415384,-0.50883 0,0 -3.271538,2.24654 -3.271538,2.24654 z" />
    <path
       style="fill:#d5e5ff;stroke-width:0.264583"
       id="path1116"
       d="m 128.20476,107.10906 c 1.08869,0.54263 2.23616,0.95044 3.36373,1.40227 1.06823,0.42701 2.12247,0.88118 3.1543,1.38973 0.92644,0.45902 1.8824,0.84485 2.79686,1.32889 0.80545,0.5484 1.69,0.88813 2.61696,1.16568 0.17792,0.046 0.35584,0.0921 0.53376,0.13809 0,0 3.20781,-2.21467 3.20781,-2.21467 v 0 c -0.17569,-0.0407 -0.35138,-0.0815 -0.52706,-0.12222 -0.90252,-0.2563 -1.77566,-0.57929 -2.5597,-1.10674 -0.9154,-0.49454 -1.87388,-0.88261 -2.80902,-1.33504 -1.04302,-0.52163 -2.11272,-0.97278 -3.19911,-1.39645 -1.09693,-0.44353 -2.22339,-0.83503 -3.26144,-1.40815 0,0 -3.31709,2.15861 -3.31709,2.15861 z" />
    <path
       style="fill:#d5e5ff;stroke-width:0.264583"
       id="path1118"
       d="m 154.27931,110.60483 c 1.08604,-0.70235 2.82823,-2.19066 -1.93796,1.09644 -0.23376,0.16122 0.52598,-0.21516 0.795,-0.30607 0.28887,-0.0976 0.58357,-0.17724 0.8773,-0.25904 0.29189,-0.0813 0.58624,-0.15345 0.87935,-0.23018 1.08519,-0.29301 2.19148,-0.47804 3.30286,-0.63292 0,0 3.14476,-2.35973 3.14476,-2.35973 v 0 c -1.14235,0.19592 -2.29435,0.34176 -3.41171,0.6675 -0.65614,0.16712 -1.98818,0.41548 -2.5595,0.71196 -1.62665,0.84411 -3.31444,1.64992 -4.76013,2.79372 0,0 3.67003,-1.48168 3.67003,-1.48168 z" />
  </g>
</svg>
